<?xml version="1.0" encoding="UTF-8"?>
<svg width="128px" height="141px" viewBox="0 0 128 141" version="1.1" xmlns="http://www.w3.org/2000/svg" xmlns:xlink="http://www.w3.org/1999/xlink">
    <!-- Generator: Sketch 53.2 (72643) - https://sketchapp.com -->
    <title>docer-会员icon</title>
    <desc>Created with Sketch.</desc>
    <defs>
        <path d="M120,92.2577482 C120,97.9453284 116.806265,102.878361 112.126747,105.360188 L69.1898795,129.967453 C66.4327711,131.861718 63.3522892,133 60,133 C56.6481928,133 53.5677108,131.861718 51.0915663,129.967453 L9.47373494,106.270717 C3.93783133,103.931474 -8.15934242e-15,98.5549 -8.15934242e-15,92.2400448 C-8.15934242e-15,92.1287206 0.00016064257,75.0958044 0.000481927711,41.1412963 C-8.15934242e-15,40.5824426 0.0197590361,40.4197626 0.025060241,40.2532549 L0.025060241,38.9733459 C0.73253012,33.7982077 4.00144578,29.4546514 8.51855422,27.3345481 L50.8168675,2.99905385 C53.6048193,1.12488443 56.6684337,-2.6069568e-13 60,-2.6069568e-13 C63.3320482,-2.6069568e-13 66.3951807,1.12488443 68.8636145,2.99905385 L112.25253,27.6747407 C112.279197,27.6894138 112.756466,27.9629395 113.684337,28.4953178 C117.499277,31.2474808 120,35.6857743 120,40.7168929 C120,42.5054161 120,91.771622 120,92.2577482 Z" id="path-1"></path>
        <filter x="-5.8%" y="-3.8%" width="111.7%" height="110.5%" filterUnits="objectBoundingBox" id="filter-2">
            <feOffset dx="0" dy="2" in="SourceAlpha" result="shadowOffsetOuter1"></feOffset>
            <feGaussianBlur stdDeviation="2" in="shadowOffsetOuter1" result="shadowBlurOuter1"></feGaussianBlur>
            <feColorMatrix values="0 0 0 0 1   0 0 0 0 0.282352941   0 0 0 0 0  0 0 0 0.5 0" type="matrix" in="shadowBlurOuter1"></feColorMatrix>
        </filter>
    </defs>
    <g id="页面-1" stroke="none" stroke-width="1" fill="none" fill-rule="evenodd">
        <g id="官网3合1" transform="translate(-900.000000, -442.000000)">
            <g id="会员卡页" transform="translate(369.000000, 364.000000)">
                <g id="docer-会员icon" transform="translate(535.000000, 80.000000)">
                    <g>
                        <g id="Page-1-Copy">
                            <use fill="black" fill-opacity="1" filter="url(#filter-2)" xlink:href="#path-1"></use>
                            <use fill="#FF4800" fill-rule="evenodd" xlink:href="#path-1"></use>
                        </g>
                        <path d="M67.4349049,80.2894629 C80.8272494,67.8528164 93.6006465,64.7135578 93.6006465,64.7135578 C93.6006465,64.7135578 91.8150006,80.079644 80.3702159,92.5764845 C68.9260054,105.073325 53.5861011,107.169222 53.5861011,107.169222 C53.5861011,107.169222 54.0431346,92.7266828 67.4349049,80.2894629 Z M69.3540436,54.8602069 C67.5207422,72.3256293 58.1440915,82.4892371 58.1440915,82.4892371 C58.1440915,82.4892371 49.6390197,68.6251336 51.0233259,53.0526681 C52.407058,37.4796293 61.9416035,25.7974138 61.9416035,25.7974138 C61.9416035,25.7974138 71.2338523,36.9533621 69.3540436,54.8602069 Z M34.571613,80.1307802 C33.082235,62.825875 45.7379288,47.6151466 45.7379288,47.6151466 C44.9731441,71.360806 52.9115173,81.9532241 52.9115173,81.9532241 C52.9115173,81.9532241 54.9119001,84.6837371 53.5804168,92.8638103 C52.2638618,100.954453 48.3067326,107.19972 48.3067326,107.19972 C48.3067326,107.19972 35.6671154,92.8655302 34.571613,80.1307802 Z" id="Combined-Shape" fill="#FFFFFF"></path>
                    </g>
                </g>
            </g>
        </g>
    </g>
</svg>