<?xml version="1.0" encoding="UTF-8"?>
<svg width="28px" height="32px" viewBox="0 0 28 32" version="1.1" xmlns="http://www.w3.org/2000/svg" xmlns:xlink="http://www.w3.org/1999/xlink">
    <!-- Generator: Sketch 53.2 (72643) - https://sketchapp.com -->
    <title>模板免费下载 copy</title>
    <desc>Created with Sketch.</desc>
    <defs>
        <path d="M2,-2.13162821e-14 L20.0152588,-2.13162821e-14 L28,8.07006836 L28,30 C28,31.1045695 27.1045695,32 26,32 L2,32 C0.8954305,32 -1.4019692e-13,31.1045695 -1.4033219e-13,30 L-1.4033219e-13,2 C-1.40467461e-13,0.8954305 0.8954305,-2.11133759e-14 2,-2.13162821e-14 Z" id="path-1"></path>
    </defs>
    <g id="页面-1" stroke="none" stroke-width="1" fill="none" fill-rule="evenodd">
        <g id="官网3合1" transform="translate(-318.000000, -2121.000000)">
            <g id="icon-hover" transform="translate(316.000000, 2121.000000)">
                <g id="模板免费下载-copy">
                    <g id="矩形" fill="#EAEAEA" opacity="0">
                        <rect x="0" y="0" width="32" height="32"></rect>
                    </g>
                    <g id="分组-15" transform="translate(2.000000, 0.000000)">
                        <g id="分组-14">
                            <mask id="mask-2" fill="white">
                                <use xlink:href="#path-1"></use>
                            </mask>
                            <path stroke="#9B9B9B" stroke-width="2" d="M27,8.48117206 L19.5979285,1 L2,1 C1.44771525,1 1,1.44771525 1,2 L1,30 C1,30.5522847 1.44771525,31 2,31 L26,31 C26.5522847,31 27,30.5522847 27,30 L27,8.48117206 Z"></path>
                            <rect id="Rectangle-33" stroke="#9B9B9B" stroke-width="2" mask="url(#mask-2)" x="19" y="-3" width="12" height="12" rx="3"></rect>
                        </g>
                        <rect id="矩形" stroke="#9B9B9B" stroke-width="1.6" fill-rule="nonzero" x="4.8" y="8.8" width="8.4" height="1"></rect>
                        <rect id="矩形-copy-43" stroke="#9B9B9B" stroke-width="1.6" fill-rule="nonzero" x="4.8" y="13.8" width="11.4" height="1"></rect>
                        <path d="M4,27 L4.98983765,27.0021667 L4.9916687,24.0046387 L7.98205566,24.0043335 L8.01025391,23.0139771 L4.99118042,23.0026245 L5.00732422,21.9914551 L7.97723389,21.9909058 L8.0020752,21.0085449 L4,21 L4,27 Z M13.9920349,27 L13.0204468,27 L12.0253906,24.9983826 L9.99975586,25.0003662 L9.9961853,27 L9.00939941,27 L9.0065918,21 L11.9937744,21 C13.2345907,21 13.9953308,21.7923008 13.9953308,23.0083008 C13.9953308,24.024292 13.440267,24.5979248 12.9994507,24.9979248 L13.9920349,27 Z M10,22 L10,24.0055847 L12.0188676,24.0055847 C12.5086635,24.0055847 13.02771,23.7178955 13.02771,23.0090942 C13.02771,22.300293 12.5086635,22 12.0188676,22 L10,22 Z M15.0204082,27 L18.99646,27 L18.9932251,26.0024414 L15.9962158,26.0083313 L15.9962158,23.9983978 L19.0046387,24.0003815 L18.9922028,23.0077993 L15.9962158,22.9885732 L15.9962158,22.0125732 L18.9962463,21.9976501 L19.0036774,21 L15.0204082,21 L15.0204082,27 Z M20,27 L23.9760518,27 L23.9728169,26.0024414 L20.9758077,26.0083313 L20.9758077,23.9983978 L23.9842305,24.0003815 L23.9717946,23.0077993 L20.9758077,22.9885732 L20.9758077,22.0125732 L23.9758382,21.9976501 L23.9832692,21 L20,21 L20,27 Z" id="Free" fill="#FF4800"></path>
                    </g>
                </g>
            </g>
        </g>
    </g>
</svg>