<?xml version="1.0" encoding="UTF-8"?>
<svg width="32px" height="28px" viewBox="0 0 32 28" version="1.1" xmlns="http://www.w3.org/2000/svg" xmlns:xlink="http://www.w3.org/1999/xlink">
    <!-- Generator: Sketch 53.2 (72643) - https://sketchapp.com -->
    <title>云字体</title>
    <desc>Created with Sketch.</desc>
    <g id="页面-1" stroke="none" stroke-width="1" fill="none" fill-rule="evenodd">
        <g id="官网3合1" transform="translate(-390.000000, -2192.000000)">
            <g id="云字体" transform="translate(390.000000, 2190.000000)">
                <g id="Group-4-Copy-10">
                    <g id="矩形" fill="#EAEAEA" opacity="0">
                        <rect x="0" y="0" width="32" height="32"></rect>
                    </g>
                    <path d="M8.75647444,28.999641 L9.23911111,28.999641 C9.2411329,28.9996988 9.24309708,28.9997548 9.24500594,28.9998094 C9.2465662,28.9997543 9.24815658,28.9996982 9.24977778,28.999641 L23.9101428,28.999641 L24.2354642,28.9728591 C28.0360761,28.6599756 31,25.36866 31,21.3872386 C31,18.3347296 29.2478314,15.6199975 26.5974234,14.4153592 L25.9909566,14.1397136 L26.0116842,13.4738661 C26.0129472,13.4342633 26.0129472,13.4342633 26.0142248,13.3961186 C26.0142915,13.394131 26.0142915,13.394131 26.014358,13.3921474 C26.0189703,13.2545968 26.0204444,13.1958426 26.0204444,13.1273445 C26.0204444,7.52851534 21.6062661,3 16.1742222,3 C11.0514283,3 6.78972687,7.04521661 6.36597674,12.274081 L6.31902491,12.853443 L5.79235728,13.0993822 C2.89525901,14.4522468 1,17.3843643 1,20.6667863 C1,24.8894291 4.12537891,28.4274717 8.23355049,28.9350341 L8.75647444,28.999641 Z M9.16755527,29.0029396 C9.15743396,29.0034878 9.15366072,29.0039749 9.14666151,29.0048784 C9.15501866,29.0038347 9.15946364,29.0032796 9.17057453,29.0026758 Z M9.25461629,30.999641 L9.24977778,30.999641 C9.29430554,30.9980679 9.31482857,30.9973428 9.32666695,30.9967015 C9.31200762,30.9975978 9.29305154,30.9982838 9.25461679,30.999641 Z" id="Page-1" stroke="#9B9B9B" stroke-width="2"></path>
                    <polygon id="矩形" fill="#9B9B9B" fill-rule="nonzero" points="10 14 22 14 22 16 10 16"></polygon>
                    <polygon id="矩形-copy" fill="#9B9B9B" fill-rule="nonzero" transform="translate(16.000000, 20.000000) rotate(-90.000000) translate(-16.000000, -20.000000) " points="11 19 21 19 21 21 11 21"></polygon>
                </g>
            </g>
        </g>
    </g>
</svg>