<?xml version="1.0" encoding="UTF-8"?>
<svg width="99px" height="34px" viewBox="0 0 99 34" version="1.1" xmlns="http://www.w3.org/2000/svg" xmlns:xlink="http://www.w3.org/1999/xlink">
    <!-- Generator: Sketch 51.2 (57519) - http://www.bohemiancoding.com/sketch -->
    <title>head logo</title>
    <desc>Created with Sketch.</desc>
    <defs></defs>
    <g id="首页-9.5" stroke="none" stroke-width="1" fill="none" fill-rule="evenodd">
        <g id="wps-plus-2.0定稿" transform="translate(-390.000000, -22.000000)" fill="#FF4B21">
            <g id="head-logo" transform="translate(390.000000, 22.000000)">
                <path d="M89.8684175,14.5921267 C88.022262,16.4199194 89.4992712,21.1926175 87.0826553,21.1926175 C84.6611656,21.1926175 86.1369033,16.4199194 84.2922312,14.5921267 C82.4471352,12.7666421 77.6297968,14.2266101 77.6285253,11.8337565 C77.624711,9.43607687 82.4435328,10.8998218 84.2932907,9.0705603 C86.1369033,7.2452855 84.6598941,2.4738464 87.0826553,2.4738464 C89.4979997,2.4738464 88.022262,7.24150864 89.8684175,9.0705603 C91.7105467,10.8960449 96.5319114,9.43104105 96.5331829,11.8249438 C96.5357258,14.2203154 91.7143611,12.7628652 89.8684175,14.5921267 M93.0434574,5.92799902 C90.7162674,3.6222231 90.1165635,0.0472108091 87.0673979,0.0495188931 C84.0258609,0.0495188931 83.4365406,3.62851787 81.1167674,5.92799902 C78.7908489,8.22852929 75.1763087,8.8145728 75.1763087,11.8337565 C75.1763087,14.8479044 78.7908489,15.4379346 81.1167674,17.7372059 C83.440355,20.0392049 84.0362445,23.621771 87.0839268,23.615686 C90.1254637,23.615686 90.7202937,20.0392049 93.0423979,17.7372059 C95.3645021,15.4328988 98.9788303,14.8479044 98.9788303,11.8337565 C98.9788303,8.8145728 95.3645021,8.22852929 93.0434574,5.92799902" id="Fill-1"></path>
                <path d="M60.055436,28.4661753 C61.9244535,29.6012329 64.6571735,30.5475902 67.5332873,30.5475902 C71.7979158,30.5475902 74.2917205,28.324705 74.2917205,25.1086719 C74.2917205,22.1296674 72.5658741,20.4271908 68.2034973,18.7723836 C62.9315498,16.9286564 59.6713456,14.2321532 59.6713456,9.73959208 C59.6713456,4.77451138 63.8426791,1.08573892 70.1203869,1.08573892 C73.4289086,1.08573892 75.8245196,1.84339591 77.2624652,2.64718453 L76.1121978,6.004688 C75.0581201,5.43704936 72.9003111,4.49091173 69.9774385,4.49091173 C65.5669669,4.49091173 63.8894379,7.09229593 63.8894379,9.26729213 C63.8894379,12.2460769 65.8544224,13.7121839 70.3132114,15.4146604 C75.7764248,17.4947573 78.556349,20.0959218 78.556349,24.7774029 C78.556349,29.696352 74.8668541,33.9512253 67.2458318,33.9512253 C64.1301346,33.9512253 60.726982,33.0538554 59.0013582,31.9187978 L60.055436,28.4661753 Z" id="Fill-9"></path>
                <path d="M43.9832535,17.9296148 C44.8533672,18.1651809 45.9521224,18.2597577 47.2799445,18.2597577 C52.087158,18.2597577 55.0171719,15.8554941 55.0171719,11.4727811 C55.0171719,7.278346 52.133099,5.25282725 47.7374401,5.25282725 C45.9982761,5.25282725 44.6693906,5.39359773 43.9832535,5.58297016 L43.9832535,17.9296148 Z M40,2.61299746 C41.9231406,2.28285454 44.4405364,2 47.6453455,2 C51.5837214,2 54.4677943,2.94314038 56.2986276,4.63982978 C57.9931268,6.14714676 59,8.45683362 59,11.2847223 C59,14.1601182 58.1758273,16.4222978 56.6195764,18.0716988 C54.5137353,20.3800721 51.0800721,21.5585597 47.1878498,21.5585597 C45.9982761,21.5585597 44.8993082,21.5112714 43.9832535,21.2757052 L43.9832535,34 L40,34 L40,2.61299746 Z" id="Fill-7"></path>
                <path d="M8.08330327,33.9287163 L-2.19589939e-05,2.16587318 L4.348298,2.16587318 L8.1307347,18.2367671 C9.07541061,22.1941244 9.92632162,26.153014 10.4935224,29.2165343 L10.5886049,29.2165343 C11.1083743,26.058442 12.1017991,22.2889153 13.1887693,18.1894811 L17.4422265,2.16587318 L21.7444325,2.16587318 L25.6204145,18.2827397 C26.5189766,22.0535798 27.369668,25.8231065 27.8420059,29.1690294 L27.9370884,29.1690294 C28.5980541,25.6823431 29.4966161,22.1470573 30.4885039,18.1894811 L34.6958471,2.16587318 L38.9029707,2.16587318 L29.8751892,33.9287163 L25.5729831,33.9287163 L21.5558048,17.3884649 C20.5623799,13.3347844 19.9011946,10.2244159 19.4751901,7.02035104 L19.3803273,7.02035104 C18.8129068,10.1782245 18.1045097,13.2874984 16.9224571,17.3884649 L12.3855093,33.9287163 L8.08330327,33.9287163 Z" id="Fill-4"></path>
            </g>
        </g>
    </g>
</svg>