<svg width="99" height="34" xmlns="http://www.w3.org/2000/svg"><g fill="#FF4B21" fill-rule="evenodd"><path d="M89.868 14.592c-1.846 1.828-.369 6.6-2.785 6.6-2.422 0-.946-4.772-2.79-6.6-1.846-1.825-6.663-.365-6.664-2.758-.004-2.398 4.815-.934 6.664-2.763 1.844-1.826.367-6.597 2.79-6.597 2.415 0 .94 4.768 2.785 6.597 1.843 1.825 6.664.36 6.665 2.754.003 2.395-4.819.938-6.665 2.767m3.175-8.664C90.716 3.622 90.117.048 87.067.05c-3.041 0-3.63 3.579-5.95 5.878-2.326 2.3-5.94 2.887-5.94 5.906 0 3.014 3.614 3.604 5.94 5.903 2.323 2.302 2.92 5.885 5.967 5.879 3.041 0 3.636-3.577 5.958-5.879 2.323-2.304 5.937-2.89 5.937-5.903 0-3.02-3.614-3.605-5.936-5.906"/><path d="M60.055 28.466c1.87 1.135 4.602 2.082 7.478 2.082 4.265 0 6.759-2.223 6.759-5.44 0-2.978-1.726-4.68-6.089-6.336-5.271-1.843-8.532-4.54-8.532-9.032 0-4.965 4.172-8.654 10.45-8.654 3.308 0 5.704.757 7.141 1.561l-1.15 3.358a12.998 12.998 0 00-6.135-1.514c-4.41 0-6.088 2.601-6.088 4.776 0 2.98 1.965 4.445 6.424 6.148 5.463 2.08 8.243 4.68 8.243 9.362 0 4.92-3.69 9.174-11.31 9.174-3.116 0-6.519-.897-8.245-2.032l1.054-3.453zM43.983 17.93c.87.235 1.97.33 3.297.33 4.807 0 7.737-2.405 7.737-6.787 0-4.195-2.884-6.22-7.28-6.22-1.739 0-3.068.14-3.754.33V17.93zM40 2.613C41.923 2.283 44.44 2 47.645 2c3.939 0 6.823.943 8.654 2.64C57.993 6.147 59 8.457 59 11.285c0 2.875-.824 5.137-2.38 6.787-2.106 2.308-5.54 3.487-9.432 3.487-1.19 0-2.289-.048-3.205-.283V34H40V2.613zM8.083 33.929L0 2.166h4.348l3.783 16.07c.944 3.958 1.795 7.917 2.363 10.98h.095c.52-3.158 1.513-6.927 2.6-11.027l4.253-16.023h4.302l3.876 16.117c.899 3.77 1.75 7.54 2.222 10.886h.095c.661-3.487 1.56-7.022 2.552-10.98l4.207-16.023h4.207l-9.028 31.763h-4.302l-4.017-16.54c-.994-4.054-1.655-7.165-2.08-10.369h-.096c-.567 3.158-1.275 6.267-2.458 10.368l-4.536 16.54H8.083z"/></g></svg>