<svg xmlns="http://www.w3.org/2000/svg" viewBox="0 0 120 120">
  <defs>
    <linearGradient id="120-a" x1="91.601%" x2="7.076%" y1="3.96%" y2="97.505%">
      <stop offset="0%" stop-color="#47ADFF"/>
      <stop offset="100%" stop-color="#667EFF"/>
    </linearGradient>
    <linearGradient id="120-b" x1="37.867%" x2="53.616%" y1="77.457%" y2="24.508%">
      <stop offset="0%" stop-color="#FFF" stop-opacity="0"/>
      <stop offset="100%" stop-color="#FFF" stop-opacity=".149"/>
    </linearGradient>
    <linearGradient id="120-c" x1="42.663%" x2="50.925%" y1="98.101%" y2="43.936%">
      <stop offset="0%" stop-color="#FFF" stop-opacity="0"/>
      <stop offset="100%" stop-color="#FFF" stop-opacity=".149"/>
    </linearGradient>
    <linearGradient id="120-d" x1="59.304%" x2="42.95%" y1="33.438%" y2="85.986%">
      <stop offset="0%" stop-color="#FFF" stop-opacity="0"/>
      <stop offset="100%" stop-color="#FFF" stop-opacity=".2"/>
    </linearGradient>
    <linearGradient id="120-e" x1="57.793%" x2="48.832%" y1="7.26%" y2="56.407%">
      <stop offset="0%" stop-color="#FFF" stop-opacity="0"/>
      <stop offset="100%" stop-color="#FFF" stop-opacity=".149"/>
    </linearGradient>
    <linearGradient id="120-f" x1="86.231%" x2="38.605%" y1="23.781%" y2="100.569%">
      <stop offset="0%" stop-color="#FFF" stop-opacity=".498"/>
      <stop offset="100%" stop-color="#FFF"/>
    </linearGradient>
    <linearGradient id="120-g" x1="14.902%" x2="65.643%" y1="76.299%" y2="-8.315%">
      <stop offset="0%" stop-color="#FFF" stop-opacity=".498"/>
      <stop offset="100%" stop-color="#FFF"/>
    </linearGradient>
  </defs>
  <g fill="none" fill-rule="evenodd">
    <path fill="url(#120-a)" fill-rule="nonzero" d="M15,0 L105,0 C113.25,0 120,6.75 120,15 L120,105 C120,113.25 113.25,120 105,120 L15,120 C6.75,120 0,113.25 0,105 L0,15 C0,6.75 6.75,0 15,0 Z"/>
    <polygon fill="url(#120-b)" fill-rule="nonzero" points="22 22 22 41 37.5 41 0 78.5 0 45"/>
    <polygon fill="url(#120-c)" fill-rule="nonzero" points="22 22 22 41 0 63.75 0 45"/>
    <polygon fill="url(#120-d)" fill-rule="nonzero" points="97.5 97 120 75 120 41 82 79 97.5 79"/>
    <polygon fill="url(#120-e)" fill-rule="nonzero" points="97.5 97 120 75 120 56 97.5 79"/>
    <path fill="url(#120-f)" fill-rule="nonzero" d="M82,79 L97.5,79 L97.5,97 L37,97 L113.75,21.25 C118.5,16.5 118.5,8.5 113.75,3.75 C111.5,1.25 108.25,0 105,0 C113.25,0 120,6.75 120,15 L120,39 C120,40.25 119.5,41.5 118.5,42.5 L82,79 Z"/>
    <path fill="url(#120-g)" fill-rule="nonzero" d="M37.5,41 L22,41 L22,22 L82.5,22 L6.25,98.75 C1.5,103.5 1.5,111.5 6.25,116.25 C8.5,118.75 11.75,120 15,120 C6.75,120 0,113.25 0,105 L0,81 C0,79.75 0.5,78.25 1.5,77.25 L37.5,41 Z"/>
  </g>
</svg>
