<?xml version="1.0" encoding="UTF-8"?>
<svg width="28px" height="14px" viewBox="0 0 28 14" version="1.1" xmlns="http://www.w3.org/2000/svg" xmlns:xlink="http://www.w3.org/1999/xlink">
    <!-- Generator: Sketch 53.2 (72643) - https://sketchapp.com -->
    <title>Combined Shape</title>
    <desc>Created with Sketch.</desc>
    <g id="Page-1" stroke="none" stroke-width="1" fill="none" fill-rule="evenodd">
        <g id="1920-菜单展开" transform="translate(-491.000000, -149.000000)" fill="#EB3E3E">
            <g id="所有产品" transform="translate(0.000000, 56.000000)">
                <g id="Group-11" transform="translate(364.000000, 32.000000)">
                    <g id="Group-12" transform="translate(127.000000, 61.000000)">
                        <path d="M2,0 L26,0 C27.1045695,-2.02906125e-16 28,0.8954305 28,2 L28,12 C28,13.1045695 27.1045695,14 26,14 L2,14 C0.8954305,14 1.3527075e-16,13.1045695 0,12 L0,2 C-1.3527075e-16,0.8954305 0.8954305,2.02906125e-16 2,0 Z M2.7421875,11 L4.08496094,11 L4.08496094,6.33203125 L6.97070312,11 L8.42089844,11 L8.42089844,3.84179688 L7.078125,3.84179688 L7.078125,8.62207031 L4.1484375,3.84179688 L2.7421875,3.84179688 L2.7421875,11 Z M9.94921875,11 L15.3935547,11 L15.3935547,9.79394531 L11.3945312,9.79394531 L11.3945312,7.84570312 L14.9882812,7.84570312 L14.9882812,6.63964844 L11.3945312,6.63964844 L11.3945312,5.05273438 L15.2568359,5.05273438 L15.2568359,3.84179688 L9.94921875,3.84179688 L9.94921875,11 Z M17.6347656,11 L19.2021484,11 L20.6230469,5.6484375 L22.0488281,11 L23.5820312,11 L25.3203125,3.84179688 L23.8652344,3.84179688 L22.7666016,8.84179688 L21.5117188,3.84179688 L19.7929688,3.84179688 L18.484375,8.75878906 L17.4052734,3.84179688 L15.9257812,3.84179688 L17.6347656,11 Z" id="Combined-Shape"></path>
                    </g>
                </g>
            </g>
        </g>
    </g>
</svg>