<?xml version="1.0" encoding="UTF-8"?>
<svg width="132px" height="145px" viewBox="0 0 132 145" version="1.1" xmlns="http://www.w3.org/2000/svg" xmlns:xlink="http://www.w3.org/1999/xlink">
    <!-- Generator: Sketch 53.2 (72643) - https://sketchapp.com -->
    <title>wps-会员icon</title>
    <desc>Created with Sketch.</desc>
    <defs>
        <path d="M120,92.2577482 C120,97.9453284 116.806265,102.878361 112.126747,105.360188 L69.1898795,129.967453 C66.4327711,131.861718 63.3522892,133 60,133 C56.6481928,133 53.5677108,131.861718 51.0915663,129.967453 L9.47373494,106.270717 C3.93783133,103.931474 -8.15934242e-15,98.5549 -8.15934242e-15,92.2400448 C-8.15934242e-15,92.1287206 0.00016064257,75.0958044 0.000481927711,41.1412963 C-8.15934242e-15,40.5824426 0.0197590361,40.4197626 0.025060241,40.2532549 L0.025060241,38.9733459 C0.73253012,33.7982077 4.00144578,29.4546514 8.51855422,27.3345481 L50.8168675,2.99905385 C53.6048193,1.12488443 56.6684337,-2.6069568e-13 60,-2.6069568e-13 C63.3320482,-2.6069568e-13 66.3951807,1.12488443 68.8636145,2.99905385 L112.25253,27.6747407 C112.279197,27.6894138 112.756466,27.9629395 113.684337,28.4953178 C117.499277,31.2474808 120,35.6857743 120,40.7168929 C120,42.5054161 120,91.771622 120,92.2577482 Z" id="path-1"></path>
        <filter x="-8.8%" y="-5.6%" width="117.5%" height="115.8%" filterUnits="objectBoundingBox" id="filter-2">
            <feOffset dx="0" dy="3" in="SourceAlpha" result="shadowOffsetOuter1"></feOffset>
            <feGaussianBlur stdDeviation="3" in="shadowOffsetOuter1" result="shadowBlurOuter1"></feGaussianBlur>
            <feColorMatrix values="0 0 0 0 0.996078431   0 0 0 0 0.611764706   0 0 0 0 0.0666666667  0 0 0 0.5 0" type="matrix" in="shadowBlurOuter1"></feColorMatrix>
        </filter>
    </defs>
    <g id="页面-1" stroke="none" stroke-width="1" fill="none" fill-rule="evenodd">
        <g id="官网3合1" transform="translate(-493.000000, -441.000000)">
            <g id="会员卡页" transform="translate(369.000000, 364.000000)">
                <g id="wps-会员icon" transform="translate(130.000000, 80.000000)">
                    <g>
                        <g id="Page-1-Copy">
                            <use fill="black" fill-opacity="1" filter="url(#filter-2)" xlink:href="#path-1"></use>
                            <use fill="#FE9C11" fill-rule="evenodd" xlink:href="#path-1"></use>
                        </g>
                        <path d="M80.4123188,88.8686575 L89.0755292,62.7751022 L74.6734853,66.6999327 C72.9560458,67.1679658 71.2061009,66.6163875 70.0449097,65.4098902 C69.7780044,65.1343651 69.5403962,64.8217784 69.3400423,64.4742669 L69.2984483,64.39581 C69.2742598,64.3518583 69.2507014,64.3074278 69.2277885,64.2625277 L60.5948429,47.978603 L51.4512185,63.6837384 C51.1392497,64.2235084 50.7370691,64.6788729 50.2746845,65.0417833 C49.1326948,66.5001586 47.2100562,67.2132316 45.3265147,66.6999327 L30.9245718,62.7751297 L39.5868556,88.8686575 L80.4123188,88.8686575 Z M84.9097398,98.52129 C84.5849942,98.6227516 84.239693,98.6774194 83.8816892,98.6774194 L35.5428484,98.6774194 C34.1499696,98.6774194 32.949374,97.8498911 32.40357,96.6585678 C32.0859697,96.2074331 31.8411558,95.6926049 31.6908758,95.126763 L19.3178822,57.8531518 C18.9837833,57.1388231 18.8200179,56.3388817 18.8642409,55.5196805 C18.9503801,53.4888626 20.3233351,51.6615152 22.3718379,51.1073479 C23.2489189,50.8700773 24.1343853,50.8974719 24.9450994,51.1410172 L44.6443457,56.5089406 L56.6798697,35.8366636 C57.2798587,34.7978395 58.2139399,34.0718539 59.2684189,33.7157064 C59.7482857,33.5524085 60.2427856,33.4704217 60.7339243,33.4649151 C61.5593719,33.4542167 62.3984031,33.658464 63.1653309,34.1005128 C64.0405707,34.6054696 64.6940186,35.3469562 65.0914778,36.197511 L75.7959862,56.3889284 L95.0624528,51.1388031 C95.8711121,50.8973044 96.7538038,50.8708138 97.6281621,51.1073479 C99.6725111,51.6605175 101.044496,53.483042 101.13523,55.5100628 C101.181176,56.3310958 101.01813,57.1330506 100.68398,57.8491649 L88.3085487,95.125609 C87.8499314,96.8532003 86.5108998,98.1051619 84.9097398,98.52129 Z" id="Combined-Shape" fill="#FFFFFF"></path>
                    </g>
                </g>
            </g>
        </g>
    </g>
</svg>