<?xml version="1.0" encoding="UTF-8"?>
<svg width="102px" height="45px" viewBox="0 0 102 45" version="1.1" xmlns="http://www.w3.org/2000/svg" xmlns:xlink="http://www.w3.org/1999/xlink">
    <!-- Generator: Sketch 53.2 (72643) - https://sketchapp.com -->
    <title>热门下载</title>
    <desc>Created with Sketch.</desc>
    <g id="热门下载" stroke="none" stroke-width="1" fill="none" fill-rule="evenodd">
        <g id="Group-23" transform="translate(0.000000, -1.000000)">
            <rect id="Rectangle" x="0" y="1" width="102" height="45"></rect>
            <path d="M10.4909375,9.64453125 L11.49875,8.30859375 C12.2175036,8.74609594 12.9323402,9.18749777 13.6432812,9.6328125 C13.88547,8.57811973 14.0143749,7.4257875 14.03,6.17578125 L11.1471875,6.17578125 L11.1471875,4.48828125 L14.0651562,4.48828125 C14.0964064,3.19139977 14.108125,2.01172406 14.1003125,0.94921875 L15.905,0.94921875 C15.905,1.96484883 15.8893752,3.14452453 15.858125,4.48828125 L21.295625,4.48828125 C21.1549993,9.11330437 21.2565608,12.2460855 21.6003125,13.8867187 C21.8034385,14.8085984 22.1003105,15.2695312 22.4909375,15.2695312 C22.8034391,15.2695312 23.006562,15.0039089 23.1003125,14.4726562 C23.2409382,13.7070274 23.365937,12.6601629 23.4753125,11.3320312 C24.0690655,11.5507823 24.6471847,11.7382805 25.2096875,11.8945312 C25.0534367,13.2851632 24.8893759,14.3867147 24.7175,15.1992188 C24.3893734,16.6367259 23.6628181,17.3554688 22.5378125,17.3554688 C21.1940558,17.3554688 20.2878148,16.2695421 19.8190625,14.0976562 C19.5378111,12.644524 19.4206248,10.0039254 19.4675,6.17578125 L15.8229687,6.17578125 C15.7995311,7.80860191 15.612033,9.3046807 15.2604687,10.6640625 C16.3620368,11.3750036 17.4440572,12.0976526 18.5065625,12.8320312 L17.3346875,14.4960938 C16.4128079,13.7851527 15.5221918,13.1171906 14.6628125,12.4921875 C13.6862451,14.8281367 12.1159483,16.6445248 9.951875,17.9414062 C9.56124805,17.4570288 9.10812758,16.9492214 8.5925,16.4179688 C10.7253232,15.2929631 12.2292144,13.6171986 13.1042187,11.390625 C12.1979642,10.7578093 11.3268792,10.1757839 10.4909375,9.64453125 Z M1.93625,10.6757812 C3.15500609,10.3632797 4.35811906,10.0390642 5.545625,9.703125 L5.545625,6.12890625 L2.2175,6.12890625 L2.2175,4.51171875 L5.545625,4.51171875 L5.545625,1.04296875 L7.326875,1.04296875 L7.326875,4.51171875 L10.0925,4.51171875 L10.0925,6.12890625 L7.326875,6.12890625 L7.326875,9.1875 C8.1862543,8.92187367 9.03780828,8.65234512 9.8815625,8.37890625 C9.8815625,9.09765984 9.89718734,9.69140391 9.9284375,10.1601562 C9.84249957,10.1914064 8.97532074,10.4648412 7.326875,10.9804688 L7.326875,14.4257812 C7.326875,16.3164157 6.44407133,17.2617188 4.6784375,17.2617188 C4.00655914,17.2617188 3.28000391,17.2460939 2.49875,17.2148438 C2.43624969,16.6835911 2.34250062,16.0429725 2.2175,15.2929688 C2.98312883,15.4179694 3.67843437,15.4804688 4.3034375,15.4804688 C5.13156664,15.4804688 5.545625,15.058598 5.545625,14.2148438 L5.545625,11.53125 C4.60812031,11.8281265 3.52219367,12.1679668 2.2878125,12.5507812 L1.93625,10.6757812 Z M20.1940625,18.6210938 L21.6940625,17.7304688 C22.7096926,19.2304763 23.717495,20.8163979 24.7175,22.4882812 L23.0534375,23.4726562 C22.2253084,21.9257735 21.2721929,20.3086022 20.1940625,18.6210938 Z M4.655,18.2695312 L6.295625,18.9726562 C5.59249648,20.5820393 4.73313008,22.2460852 3.7175,23.9648438 C3.24874766,23.6992174 2.70969055,23.4257827 2.1003125,23.1445312 C3.17844289,21.4570228 4.02999687,19.8320391 4.655,18.2695312 Z M8.4753125,19.2070312 L10.0221875,18.5273438 C10.7409411,19.8398503 11.4831212,21.2929608 12.24875,22.8867188 L10.514375,23.6367188 C9.84249664,22.0273357 9.16281594,20.550788 8.4753125,19.2070312 Z M14.4284375,19.0898438 L15.9753125,18.4101562 C16.7721915,19.8007882 17.522184,21.2304614 18.2253125,22.6992188 L16.514375,23.4257812 C15.920622,21.9570239 15.2253165,20.5117259 14.4284375,19.0898438 Z M35.874375,4.48828125 L35.874375,2.70703125 L48.5775,2.70703125 L48.5775,20.3789062 C48.5775,22.6132924 47.5071982,23.7304688 45.3665625,23.7304688 C44.3978077,23.7304688 43.1556326,23.7148439 41.64,23.6835938 C41.5618746,23.1523411 41.4368759,22.5039101 41.265,21.7382812 C42.7025072,21.8320317 43.9446823,21.8789062 44.9915625,21.8789062 C46.1321932,21.8789062 46.7025,21.2851622 46.7025,20.0976562 L46.7025,4.48828125 L35.874375,4.48828125 Z M28.79625,5.80078125 L30.67125,5.80078125 L30.67125,23.9882812 L28.79625,23.9882812 L28.79625,5.80078125 Z M29.8509375,2.14453125 L31.186875,0.94921875 C32.2337552,1.93359867 33.3353067,3.02733773 34.4915625,4.23046875 L32.968125,5.56640625 C31.8899946,4.33202508 30.8509425,3.19141148 29.8509375,2.14453125 Z M52.609375,2.98828125 L75.390625,2.98828125 L75.390625,4.91015625 L64,4.91015625 L64,10.0195312 L65.078125,8.51953125 C68.6562679,10.6289168 71.6562379,12.5273353 74.078125,14.2148438 L72.6953125,16.1132812 C70.2734254,14.253897 67.3750169,12.2929791 64,10.2304688 L64,23.9882812 L61.8671875,23.9882812 L61.8671875,4.91015625 L52.609375,4.91015625 L52.609375,2.98828125 Z M88.1646875,22.5585938 C90.0162593,21.2929624 91.6803051,19.7656339 93.156875,17.9765625 C92.359996,15.5703005 91.8521886,12.5351746 91.6334375,8.87109375 L77.82875,8.87109375 L77.82875,7.30078125 L83.6646875,7.30078125 L83.6646875,5.12109375 L78.7896875,5.12109375 L78.7896875,3.64453125 L83.6646875,3.64453125 L83.6646875,1.25390625 L85.3990625,1.25390625 L85.3990625,3.64453125 L90.01625,3.64453125 L90.01625,5.12109375 L85.3990625,5.12109375 L85.3990625,7.30078125 L91.5396875,7.30078125 C91.445937,5.44139695 91.3600004,3.38673 91.281875,1.13671875 L93.0865625,1.13671875 C93.094375,3.33204223 93.1529682,5.38670918 93.2623437,7.30078125 L101.055312,7.30078125 L101.055312,8.87109375 L93.3560937,8.87109375 C93.5201571,11.7539207 93.8912471,14.2109273 94.469375,16.2421875 C95.6490684,14.5624916 96.6881205,12.6914166 97.5865625,10.6289062 L99.20375,11.3789062 C98.000619,13.9648567 96.64907,16.2499901 95.1490625,18.234375 C95.6334399,19.3828182 96.2037467,20.3476523 96.86,21.1289062 C97.266252,21.5976586 97.6412483,21.8320312 97.985,21.8320312 C98.4068771,21.8320312 98.6881243,21.5195344 98.82875,20.8945312 C99.0162509,20.050777 99.1959366,18.9882877 99.3678125,17.7070312 C99.9928156,17.9882827 100.55531,18.199218 101.055312,18.3398438 C100.852186,19.6679754 100.625626,20.8476511 100.375625,21.8789062 C99.984998,23.2695382 99.2896925,23.9648438 98.2896875,23.9648438 C97.1490568,23.9648438 96.0631302,23.2382885 95.031875,21.7851562 C94.6099979,21.2070284 94.2271892,20.5468787 93.8834375,19.8046875 C92.5396808,21.3437577 91.0943827,22.6679632 89.5475,23.7773438 C89.0787477,23.2460911 88.6178148,22.8398452 88.1646875,22.5585938 Z M81.1334375,15.4804688 L84.344375,15.4804688 L84.344375,13.3242188 L86.0084375,13.3242188 L86.0084375,15.4804688 L90.438125,15.4804688 L90.438125,16.9570312 L86.0084375,16.9570312 L86.0084375,19.1367188 C87.4381321,19.0195307 88.9459296,18.8945319 90.531875,18.7617188 C90.4849998,19.2617213 90.4615625,19.7695287 90.4615625,20.2851562 C89.0553055,20.3789067 87.5709453,20.4921868 86.0084375,20.625 L86.0084375,24.0585938 L84.344375,24.0585938 L84.344375,20.7773438 C82.5084283,20.9335945 80.5709477,21.1210927 78.531875,21.3398438 L78.156875,19.6523438 C80.0162593,19.5507807 82.0787387,19.4179696 84.344375,19.2539062 L84.344375,16.9570312 L79.188125,16.9570312 L79.188125,15.4335938 C79.8209407,14.6132771 80.4420282,13.6992238 81.0514062,12.6914062 L78.39125,12.6914062 L78.39125,11.2148438 L81.906875,11.2148438 C82.2896894,10.5195278 82.6646857,9.78516012 83.031875,9.01171875 L84.76625,9.55078125 C84.4459359,10.1367217 84.133439,10.6914036 83.82875,11.2148438 L90.625625,11.2148438 L90.625625,12.6914062 L82.9498437,12.6914062 C82.301403,13.7539116 81.6959403,14.6835898 81.1334375,15.4804688 Z M94.656875,2.84765625 L95.8053125,1.69921875 C97.3834454,2.88672469 98.6646826,3.94140164 99.6490625,4.86328125 L98.313125,6.22265625 C97.2506197,5.08202555 96.0318819,3.9570368 94.656875,2.84765625 Z" id="热门下载" fill="#313131" fill-rule="nonzero"></path>
            <path d="M1.55207062,46 L1.55207062,36.9238281 L4.14191437,36.9238281 C5.51692124,36.9238281 6.66046449,37.3242147 7.57257843,38.125 C8.48469237,38.9257853 8.94074249,39.9999933 8.94074249,41.3476562 C8.94074249,42.7539133 8.48469237,43.8808551 7.57257843,44.7285156 C6.66046449,45.5761761 5.48567156,46 4.04816437,46 L1.55207062,46 Z M2.72394562,37.9667969 L2.72394562,44.9628906 L4.04230499,44.9628906 C5.1946545,44.9628906 6.09405957,44.6484406 6.74054718,44.0195312 C7.38703479,43.3906219 7.71027374,42.5097713 7.71027374,41.3769531 C7.71027374,40.244135 7.37824581,39.392581 6.71417999,38.8222656 C6.05011417,38.2519503 5.17707603,37.9667969 4.09503937,37.9667969 L2.72394562,37.9667969 Z M16.1926174,42.8300781 C16.1926174,41.7597603 16.4914426,40.9150422 17.0891018,40.2958984 C17.686761,39.6767547 18.4972998,39.3671875 19.5207424,39.3671875 C20.4934035,39.3671875 21.2560912,39.6650361 21.8088284,40.2607422 C22.3615655,40.8564483 22.6379299,41.6796822 22.6379299,42.7304688 C22.6379299,43.7539114 22.343011,44.580075 21.7531643,45.2089844 C21.1633176,45.8378938 20.3723099,46.1523438 19.3801174,46.1523438 C18.4113626,46.1523438 17.6379328,45.8476593 17.0598049,45.2382812 C16.481677,44.6289032 16.1926174,43.8261769 16.1926174,42.8300781 Z M17.3644924,42.7949219 C17.3644924,43.5410194 17.5529671,44.1289041 17.9299221,44.5585938 C18.3068771,44.9882834 18.813708,45.203125 19.4504299,45.203125 C20.1066832,45.203125 20.6066782,44.9931662 20.9504299,44.5732422 C21.2941816,44.1533182 21.4660549,43.5507852 21.4660549,42.765625 C21.4660549,41.9765586 21.2941816,41.3710959 20.9504299,40.9492188 C20.6066782,40.5273416 20.1066832,40.3164062 19.4504299,40.3164062 C18.8058954,40.3164062 18.2971115,40.5371072 17.9240627,40.9785156 C17.551014,41.4199241 17.3644924,42.0253868 17.3644924,42.7949219 Z M38.6378517,39.5195312 L36.704258,46 L35.5089455,46 L34.219883,41.453125 C34.1651952,41.2578115 34.1300393,41.0507823 34.1144142,40.8320312 L34.0909767,40.8320312 C34.0792579,40.9960946 34.0343365,41.1992175 33.9562111,41.4414062 L32.5616798,46 L31.4015236,46 L29.4562111,39.5195312 L30.6515236,39.5195312 L31.9464455,44.3242188 C31.9855082,44.4687507 32.0148047,44.6660144 32.0343361,44.9160156 L32.0812111,44.9160156 C32.0968362,44.7011708 32.1339452,44.4980478 32.1925392,44.3066406 L33.5870705,39.5195312 L34.6476173,39.5195312 L36.0069923,44.3300781 C36.046055,44.4707038 36.0773047,44.6699206 36.1007423,44.9277344 L36.1534767,44.9277344 C36.1612893,44.7558585 36.1964452,44.5566418 36.2589455,44.3300781 L37.5245705,39.5195312 L38.6378517,39.5195312 Z M51.3682423,46 L50.2256641,46 L50.2256641,42.3144531 C50.2256641,40.9824152 49.7393409,40.3164062 48.7666798,40.3164062 C48.262771,40.3164062 47.8487126,40.5039044 47.5244923,40.8789062 C47.2002719,41.2539081 47.0381641,41.7285128 47.0381641,42.3027344 L47.0381641,46 L45.8897266,46 L45.8897266,39.5195312 L47.0381641,39.5195312 L47.0381641,40.5917969 L47.0616016,40.5917969 C47.5498853,39.7753865 48.2588626,39.3671875 49.1885548,39.3671875 C49.8994958,39.3671875 50.440506,39.5947243 50.8116016,40.0498047 C51.1826972,40.5048851 51.3682423,41.1679644 51.3682423,42.0390625 L51.3682423,46 Z M59.3583984,46 L59.3583984,36.4082031 L60.5068359,36.4082031 L60.5068359,46 L59.3583984,46 Z M68.2040234,42.8300781 C68.2040234,41.7597603 68.5028485,40.9150422 69.1005077,40.2958984 C69.698167,39.6767547 70.5087057,39.3671875 71.5321484,39.3671875 C72.5048095,39.3671875 73.2674972,39.6650361 73.8202343,40.2607422 C74.3729714,40.8564483 74.6493359,41.6796822 74.6493359,42.7304688 C74.6493359,43.7539114 74.3544169,44.580075 73.7645702,45.2089844 C73.1747235,45.8378938 72.3837158,46.1523438 71.3915234,46.1523438 C70.4227685,46.1523438 69.6493388,45.8476593 69.0712109,45.2382812 C68.493083,44.6289032 68.2040234,43.8261769 68.2040234,42.8300781 Z M69.3758984,42.7949219 C69.3758984,43.5410194 69.564373,44.1289041 69.941328,44.5585938 C70.3182831,44.9882834 70.8251139,45.203125 71.4618359,45.203125 C72.1180891,45.203125 72.6180841,44.9931662 72.9618359,44.5732422 C73.3055876,44.1533182 73.4774609,43.5507852 73.4774609,42.765625 C73.4774609,41.9765586 73.3055876,41.3710959 72.9618359,40.9492188 C72.6180841,40.5273416 72.1180891,40.3164062 71.4618359,40.3164062 C70.8173014,40.3164062 70.3085174,40.5371072 69.9354687,40.9785156 C69.5624199,41.4199241 69.3758984,42.0253868 69.3758984,42.7949219 Z M82.3289452,39.9707031 C82.9734796,39.5683574 83.7176128,39.3671875 84.561367,39.3671875 C86.1238748,39.3671875 86.905117,40.1874918 86.905117,41.828125 L86.905117,46 L85.7683983,46 L85.7683983,44.9980469 L85.7391014,44.9980469 C85.2898804,45.767582 84.6277777,46.1523438 83.7527733,46.1523438 C83.1238639,46.1523438 82.6238689,45.9824236 82.2527733,45.6425781 C81.8816777,45.3027327 81.6961327,44.8437529 81.6961327,44.265625 C81.6961327,43.0546814 82.4129224,42.3496104 83.8465233,42.1503906 L85.7683983,41.8808594 C85.7683983,40.8222603 85.3309027,40.2929688 84.4558983,40.2929688 C83.6785506,40.2929688 82.9695734,40.5546849 82.3289452,41.078125 L82.3289452,39.9707031 Z M84.2508202,42.953125 C83.7195675,43.0234379 83.3533602,43.156249 83.1521873,43.3515625 C82.9510145,43.546876 82.8504295,43.8203107 82.8504295,44.171875 C82.8504295,44.4804703 82.9598034,44.7324209 83.1785545,44.9277344 C83.3973056,45.1230479 83.6863652,45.2207031 84.045742,45.2207031 C84.5457445,45.2207031 84.9578498,45.0449236 85.2820702,44.6933594 C85.6062905,44.3417951 85.7683983,43.9003933 85.7683983,43.3691406 L85.7683983,42.7480469 L84.2508202,42.953125 Z M100.514414,46 L99.3659763,46 L99.3659763,44.921875 L99.3425388,44.921875 C98.8698802,45.7421916 98.1355126,46.1523438 97.1394138,46.1523438 C96.3190972,46.1523438 95.66676,45.8603545 95.1823826,45.2763672 C94.6980052,44.6923799 94.4558201,43.9043018 94.4558201,42.9121094 C94.4558201,41.8417915 94.7292548,40.9834017 95.2761326,40.3369141 C95.8230103,39.6904265 96.5378469,39.3671875 97.4206638,39.3671875 C98.3034807,39.3671875 98.9440993,39.7109341 99.3425388,40.3984375 L99.3659763,40.3984375 L99.3659763,36.4082031 L100.514414,36.4082031 L100.514414,46 Z M99.3718357,42.1445312 C99.3718357,41.6249974 99.200939,41.1904314 98.8591404,40.8408203 C98.5173418,40.4912092 98.0964476,40.3164062 97.5964451,40.3164062 C96.987067,40.3164062 96.5066031,40.543943 96.1550388,40.9990234 C95.8034746,41.4541038 95.6276951,42.0742148 95.6276951,42.859375 C95.6276951,43.5820349 95.7966387,44.1533182 96.134531,44.5732422 C96.4724233,44.9931662 96.9226141,45.203125 97.485117,45.203125 C98.0398072,45.203125 98.4929277,44.9970724 98.844492,44.5849609 C99.1960562,44.1728495 99.3718357,43.6601593 99.3718357,43.046875 L99.3718357,42.1445312 Z" id="Download" fill="#ABABAB" fill-rule="nonzero"></path>
        </g>
    </g>
</svg>