<?xml version="1.0" encoding="UTF-8"?>
<svg width="32px" height="32px" viewBox="0 0 32 32" version="1.1" xmlns="http://www.w3.org/2000/svg" xmlns:xlink="http://www.w3.org/1999/xlink">
    <!-- Generator: Sketch 53.2 (72643) - https://sketchapp.com -->
    <title>PPT一键美化</title>
    <desc>Created with Sketch.</desc>
    <g id="页面-1" stroke="none" stroke-width="1" fill="none" fill-rule="evenodd">
        <g id="官网3合1" transform="translate(-390.000000, -2259.000000)">
            <g id="PPT一键美化" transform="translate(390.000000, 2259.000000)">
                <g id="矩形" fill="#EAEAEA" opacity="0">
                    <rect x="0" y="0" width="32" height="32"></rect>
                </g>
                <path d="M16,31 C24.2842712,31 31,24.2842712 31,16 C31,13.4608558 30.369211,11.015211 29.1818917,8.83557616 C26.5721554,4.04472312 21.554699,1 16,1 C7.71572875,1 1,7.71572875 1,16 C1,24.2842712 7.71572875,31 16,31 Z" id="Oval" stroke="#9B9B9B" stroke-width="2"></path>
                <g id="Group-2" transform="translate(5.000000, 3.000000)" stroke-width="2">
                    <path d="M3,20 L6,17 L3,20 Z" id="Path-5" stroke="#979797" stroke-linecap="round" stroke-linejoin="round"></path>
                    <g id="Group" transform="translate(11.878761, 11.579360) rotate(-315.000000) translate(-11.878761, -11.579360) translate(3.878761, 4.079360)" stroke="#9B9B9B">
                        <path d="M7.90228264,12.0683317 L4.62285632,13.8046873 C4.07801059,14.0931664 3.40246733,13.8853401 3.11398824,13.3404944 C2.99719228,13.1199038 2.95769755,12.866533 3.00181363,12.6208598 L3.65107557,9.00525729 L0.991553624,6.46694627 C0.545575005,6.04129367 0.529097515,5.33469695 0.954750119,4.88871833 C1.12901108,4.70613596 1.3600041,4.58799803 1.61004123,4.55357946 L5.27489218,4.04909877 L6.89975061,0.730936528 C7.17088163,0.177253376 7.83952564,-0.0518003785 8.39320879,0.219330649 C8.61581385,0.328337285 8.79580803,0.508331471 8.90481467,0.730936528 L10.5296731,4.04909877 L14.194524,4.55357946 C14.8052687,4.6376508 15.2322219,5.20091047 15.1481505,5.81165516 C15.113732,6.06169229 14.995594,6.29268531 14.8130117,6.46694627 L12.1534897,9.00525729 L12.8027516,12.6208598 C12.9117157,13.2276579 12.5081416,13.8078978 11.9013435,13.9168619 C11.6556704,13.960978 11.4022996,13.9214832 11.181709,13.8046873 L7.90228264,12.0683317 Z" id="Star-2"></path>
                    </g>
                </g>
            </g>
        </g>
    </g>
</svg>