<?xml version="1.0" encoding="UTF-8"?>
<svg width="32px" height="28px" viewBox="0 0 32 28" version="1.1" xmlns="http://www.w3.org/2000/svg" xmlns:xlink="http://www.w3.org/1999/xlink">
    <!-- Generator: Sketch 53.2 (72643) - https://sketchapp.com -->
    <title>在线图标</title>
    <desc>Created with Sketch.</desc>
    <g id="页面-1" stroke="none" stroke-width="1" fill="none" fill-rule="evenodd">
        <g id="官网3合1" transform="translate(-390.000000, -2330.000000)">
            <g id="在线图标" transform="translate(390.000000, 2328.000000)">
                <g id="矩形" fill="#EAEAEA" opacity="0">
                    <rect x="0" y="0" width="32" height="32"></rect>
                </g>
                <path d="M24.2803173,28.9995327 C28.059147,28.6641573 31,25.3792323 31,21.4083885 C31,18.3518582 29.2475561,15.6337375 26.5970494,14.4277401 L25.9909881,14.1519783 L26.0116831,13.486451 C26.012946,13.4468092 26.012946,13.4468092 26.0142236,13.4086239 C26.0142902,13.4066341 26.0142902,13.4066341 26.0143567,13.4046484 C26.0189699,13.2669235 26.0204444,13.2080887 26.0204444,13.1394835 C26.0204444,7.53371331 21.6060151,3 16.1742222,3 C10.9627714,3 6.39042699,7.13076737 5.97379016,12.2774656 L5.926907,12.8566115 L5.40054246,13.1026773 C2.64655739,14.390115 1,17.2387873 1,20.6871503 C1,24.8948147 4.09558103,28.423239 8.17431961,28.9579548 C11.5955505,28.9579655 13.6052281,28.958849 15.9822668,28.9626179 C19.6617653,28.968452 22.4940374,28.9801416 24.2803173,28.9995327 Z" id="路径" stroke="#9B9B9B" stroke-width="2"></path>
                <text id="ICO" font-family="SourceHanSansCN-Bold, Source Han Sans CN" font-size="10" font-weight="bold" fill="#9B9B9B">
                    <tspan x="7" y="25">ICO</tspan>
                </text>
            </g>
        </g>
    </g>
</svg>