<?xml version="1.0" encoding="UTF-8"?>
<svg width="29px" height="32px" viewBox="0 0 29 32" version="1.1" xmlns="http://www.w3.org/2000/svg" xmlns:xlink="http://www.w3.org/1999/xlink">
    <!-- Generator: Sketch 53.2 (72643) - https://sketchapp.com -->
    <title>在线图表</title>
    <desc>Created with Sketch.</desc>
    <defs>
        <path d="M9.9597168,32 L2.02075195,32 C0.769770541,32 -5.13686316e-14,31.3307144 -5.15143483e-14,30.0067139 L1.49780188e-13,2.03295898 C1.49632756e-13,0.708958482 0.746577182,2.49800181e-16 1.99755859,0 L19.9689941,2.5243549e-29 L27.9477539,8.06164551 L27.9992676,16" id="path-1"></path>
    </defs>
    <g id="页面-1" stroke="none" stroke-width="1" fill="none" fill-rule="evenodd">
        <g id="官网3合1" transform="translate(-392.000000, -2397.000000)">
            <g id="在线图表" transform="translate(390.000000, 2397.000000)">
                <g id="矩形" fill="#EAEAEA" opacity="0">
                    <rect x="0" y="0" width="32" height="32"></rect>
                </g>
                <g id="Group-3" transform="translate(2.000000, 0.000000)">
                    <mask id="mask-2" fill="white">
                        <use xlink:href="#path-1"></use>
                    </mask>
                    <path stroke="#9B9B9B" stroke-width="2" d="M9.58014096,31 L26.996345,15.5528712 L26.9504186,8.47552778 L19.5517504,1 L1.99755859,1 C1.28015841,1 1,1.27993194 1,2.03295898 L1,30.0067139 C1,30.7350635 1.27766812,31 2.02075195,31 L9.58014096,31 Z"></path>
                    <rect id="Rectangle-33" stroke="#9B9B9B" stroke-width="2" mask="url(#mask-2)" x="19" y="-3" width="12" height="12" rx="2"></rect>
                </g>
                <path d="M26.6858582,30.9998077 L25.9240183,31.0595392 L25.9311809,32.0073643 L26.9311523,31.9998077 L26.9311523,30.9998077 L26.6858582,30.9998077 Z M17.5182345,30.9998077 L17.1395264,30.9998077 L17.1395264,31.9998077 L18.1165979,31.7868966 L17.956318,31.0513553 L17.5182345,30.9998077 Z M27.0105992,22.9074585 C27.0110962,22.9372703 27.0113479,22.9671512 27.0113525,22.9970992 C27.0113192,22.9973946 27.011443,22.9930829 27.0119936,22.9739171 C27.0127767,22.9516088 27.0127767,22.9516088 27.0200502,22.8839875 C27.0268473,22.8299666 27.0268473,22.8299666 27.0687097,22.6843846 C27.092222,22.6286355 27.1053579,22.5974894 27.1180262,22.5714395 C27.0420614,22.6857375 27.0389865,22.7096591 27.0307597,22.773659 C27.0208045,22.8387268 27.0145232,22.8797809 27.0105992,22.9074585 Z M27.2093923,22.4389258 L27.7282436,22.0608907 C28.6132988,22.532081 28.8999357,22.6846821 28.9770308,22.7478784 C28.9620308,22.7067256 28.9278888,22.6315486 28.8488795,22.4575788 C28.7931699,22.3781271 28.7931699,22.3781271 28.7521266,22.3300013 L28.6359027,22.2191954 L28.4486292,22.0992132 L28.1706061,22.0095908 L27.8388844,22.0100281 L27.5475507,22.1072419 L27.3485461,22.2424457 C27.2925154,22.3213493 27.2467898,22.3857411 27.2093923,22.4389258 Z M28.9770308,22.7478784 C29.0119515,22.7765036 29.0038807,22.7867856 28.9889578,22.8000232 C28.9882188,22.7854902 28.986205,22.773048 28.9770308,22.7478784 Z M28.9889578,22.8000232 C28.9881,22.800784 28.9872196,22.8015547 28.9863235,22.8023391 C28.9960411,22.8508455 28.9960411,22.8508455 28.9985061,22.867701 C29.0009211,22.8848 29.0009211,22.8848 29.0000493,22.8783028 C28.9982713,22.8636789 28.9982713,22.8636789 28.9893567,22.811259 C28.9892426,22.8072452 28.9891382,22.8035719 28.9889578,22.8000232 Z M28.8282784,23.5349302 C28.7558784,23.599356 28.6235092,23.7083538 28.3701526,23.916161 L28.4643792,23.8847192 L28.6632773,23.7495893 L28.7313736,23.684275 C28.7694762,23.6256872 28.8014292,23.5765554 28.8282784,23.5349302 Z M28.1965813,23.9740786 L27.7348059,23.9479283 L27.8415379,23.9823336 L28.1731523,23.9818965 L28.1965813,23.9740786 Z M27.5793467,23.8978156 C27.3339978,23.6443291 27.1898512,23.4950328 27.1086051,23.4039408 C27.1296153,23.44823 27.1559312,23.50327 27.1888983,23.5722212 C27.219352,23.614063 27.219352,23.614063 27.3764568,23.772835 L27.5636224,23.8927468 L27.5793467,23.8978156 Z M27.1086051,23.4039408 C26.9931428,23.2744861 27.0047168,23.2625831 27.0333934,23.2362435 C27.0429349,23.2635199 27.0635954,23.3090612 27.1086051,23.4039408 Z M27.0333934,23.2362435 C27.0335495,23.2361001 27.0337061,23.2359563 27.0338632,23.2358121 C27.0292675,23.2128738 27.0267461,23.2002887 27.0250899,23.1915387 C27.025292,23.205068 27.0260467,23.2152415 27.0333934,23.2362435 Z" id="Page-1-Copy" stroke="#9B9B9B" stroke-width="2"></path>
                <rect id="矩形" fill="#9B9B9B" x="6" y="6" width="2" height="2"></rect>
                <rect id="矩形-copy-2" fill="#9B9B9B" x="6" y="11" width="2" height="2"></rect>
                <rect id="矩形-copy-4" fill="#9B9B9B" x="6" y="16" width="2" height="2"></rect>
                <rect id="矩形-copy" fill="#9B9B9B" x="10" y="6" width="8" height="2"></rect>
                <rect id="矩形-copy-3" fill="#9B9B9B" x="10" y="11" width="8" height="2"></rect>
                <rect id="矩形-copy-5" fill="#9B9B9B" x="10" y="16" width="4" height="2"></rect>
            </g>
        </g>
    </g>
</svg>