<?xml version="1.0" encoding="UTF-8"?>
<svg width="120px" height="120px" viewBox="0 0 120 120" version="1.1" xmlns="http://www.w3.org/2000/svg" xmlns:xlink="http://www.w3.org/1999/xlink">
    <!-- Generator: Sketch 54 (76480) - https://sketchapp.com -->
    <title>linuxlogo</title>
    <desc>Created with Sketch.</desc>
    <g id="linuxlogo" stroke="none" stroke-width="1" fill="none" fill-rule="evenodd">
        <g>
            <rect id="Rectangle" fill="#417FF9" x="0" y="0" width="120" height="120" rx="20"></rect>
            <path d="M72,63.8360801 L72,63.7315701 C77.134209,65.0372137 78.8426866,64.935839 83.4626866,63 L84,63 C81.7909254,64.6553341 74.7560597,66.0929739 72,63.8360801 Z M75,57.4 L75,58 C74.6666667,57.6666 74.3333333,57.3334 74,57 C74.3333333,57.1334 74.6666667,57.2666 75,57.4 Z M83,58 C82.61575,56.9495 83.04625,57.388 82,57 L83,58 Z M81.6270474,60.6818008 C83.7547881,60.9620979 84.4213388,62.0720809 83.7482613,64.2035234 C80.8766273,66.3079127 77.0421253,68.5811846 73.7948733,65.4841498 C72.9357816,64.664709 72.1398369,64.3424713 72,62.7628187 C72.5983455,62.0691994 73.1965278,61.3754201 73.7948733,60.6818008 C73.26767,60.0219581 72.4164106,59.0304331 72.9790218,57.8003915 L73.3053624,57.1600783 C73.7948733,57.2668505 74.2843841,57.3734627 74.773895,57.4802349 C74.991401,58.1738542 75.2090702,58.8676335 75.4265762,59.5612528 C76.9951323,59.1639384 78.5628725,59.2691099 79.8321742,59.8814094 C79.7504259,58.1170264 80.0082349,57.6958604 80.9743663,57 C81.246208,57.0533061 81.5182129,57.1067722 81.7902177,57.1600783 L82.4428989,57.4802349 C82.715067,58.3155234 82.933552,58.7615016 82.7692395,59.7213311 C82.3885632,59.9881816 82.0077237,60.254872 81.6270474,60.5217225 L81.6270474,60.6818008 Z M90.9090909,83 C95.6696364,80.2869014 92.4998182,75.421831 90,73 C93.3750909,74.7560563 94.7398182,78.3790141 92.9090909,82.1549296 C93.2756364,82.6698592 93.0503636,82.5184507 94,82.5774648 C92.9698182,82.7183099 91.9392727,82.8591549 90.9090909,83 Z M83.7777778,52.6 C83.8517778,52.4668 83.926,52.3334 84,52.2 C83.7037778,51.8 83.4073333,51.4 83.1111111,51 L82,51 L82,53 L82.2222222,53 C82.7406667,52.8668 83.2593333,52.7334 83.7777778,52.6 Z M65.8662829,73.48 C65.0974094,75.8552 64.2384105,77.48896 64.2616773,81 C63.2918269,78.15456 65.2773926,74.70928 66,73 C65.9554722,73.16 65.9109444,73.32 65.8662829,73.48 Z M97.7664329,74.5748982 C98.5871411,76.1930868 101.676148,82.3467657 98.7983376,83.9682344 C97.624374,84.3080346 96.6325416,83.3332151 95.3586553,83.073631 L95.3586553,83.2227315 C96.3375888,83.3770506 97.0453035,83.7420488 97.5944488,84.2664356 L97.2504805,84.5646367 C96.7924868,85.703616 95.0117633,87.6231368 92.9508777,86.8011453 C90.2109987,85.4790705 91.1772055,80.5605408 90.3711159,77.4078091 C89.1331743,72.5660662 85.4953663,68.7368652 84.1796878,64.2869586 C84.3516719,63.2930542 84.523656,62.2988515 84.6956401,61.3049471 C84.6093041,60.7774293 83.8071702,60.5504982 83.6637354,60.2612431 C82.9235158,58.7681499 85.6903963,56.3030701 82.1158784,54.7445218 C79.3974975,53.9043401 78.0410588,55.932257 78.1602438,58.173835 C77.3003232,58.1241845 76.4404026,58.074534 75.580482,58.0247345 C75.6367208,56.3794096 75.0645297,55.4493202 73.6886568,55.042723 L72.8287362,55.042723 C70.1380447,56.2586381 72.7716375,58.4274551 71.9688156,60.4103436 C71.6883095,61.103214 70.3091689,61.3110602 70.7649268,62.7959528 C71.0598796,63.7567569 72.2347031,64.3865578 71.7968315,66.225266 C71.434633,67.7460919 69.0536849,68.7920324 69.7330221,70.5491827 L71.2808792,71.8910879 C66.6293968,73.0835943 64.8481573,78.1234919 64.9174669,83.3718321 C64.6882121,83.2227315 64.4587853,83.073631 64.2295305,82.9245304 C64.0002756,82.4275782 63.7708488,81.9304769 63.541594,81.4335246 L63.541594,82.7754298 C62.2665038,82.289511 61.3477646,82.6835839 60.2738958,83.073631 L60.2738958,82.7754298 C58.1158391,78.2269677 69.3926656,68.1179487 70.2489745,64.2869586 C71.3641195,59.2980534 68.316217,53.1164926 71.4528633,49.5260017 C72.7759371,48.0114381 76.6349167,46.5311676 80.2240531,47.1403925 C90.6053583,48.9027613 86.3336168,56.0516866 89.6831795,63.2432546 C92.3773106,67.0201212 95.0723017,70.7980316 97.7664329,74.5748982 Z M60.6811621,83 C63.29355,83.0797172 73.1830212,93.977723 71.8827727,96.5897587 C71.3866275,97.484161 69.6870847,98.7379213 68.4361233,98.971469 C66.3788182,99.3556249 53.0647563,95.7480343 52.0645386,94.9085515 C52.0552326,93.4090547 51.8451594,88.9394251 52.2368711,88.0436218 C53.1238663,86.7046803 55.3655671,87.1650509 56.8898478,86.3624145 C58.1535618,85.2417498 59.4174481,84.1206647 60.6811621,83 Z M87.5650399,83 C88.2643999,83.0496006 88.9637599,83.0993501 89.6631199,83.1489507 C90.301111,83.6419777 90.37332,85.2303885 90.8869999,85.979015 C94.8170534,87.0486303 95.8505327,85.0030897 98.05544,83.4468522 C98.40512,83.6454036 98.7548,83.8441039 99.10448,84.0426552 C99.6031236,87.9420369 101.563954,88.3972304 104,90.4475374 C103.941778,90.7950395 103.883557,91.1426906 103.82516,91.4901927 C103.470584,92.1026782 92.9249349,98.5081561 91.9360399,98.7887794 C90.4226248,99.2182044 87.7820163,98.9547105 86.8656799,98.3419271 C85.3505164,97.3286152 85.9773178,84.4403537 87.5650399,83 Z M66,85 C68.210318,85.8011304 70.3919264,87.7753913 71.9942965,89.173913 C72.0395692,90.3782174 71.8236168,90.5175217 71.0478286,91 C70.890084,90.9565652 70.7323394,90.913 70.5745947,90.8695652 C69.049835,88.9131739 67.5247597,86.9563913 66,85 Z M74,94.1508387 C79.7688333,94.4868327 82.7915,93.1034713 86,91 C85.7221667,92.9572437 85.4443333,94.9147738 85.1666667,96.8720175 C82.061,96.7044502 77.0263333,97.3390578 74.1666667,96.7287976 C74.1111667,95.8696212 74.0555,95.0101583 74,94.1508387 Z M88.6397777,45.1364444 L81.8064146,41.8375794 C83.9210184,37.4474257 85.4461738,34.2810369 85.4461738,34.2810369 C85.4461738,34.2810369 86.1292693,32.8390343 84.5979968,32.8390343 L71.9721141,32.8390343 C70.4693039,32.8390343 69.7292838,34.2810369 69.7292838,34.2810369 L63.5188067,47.1759813 L63.5074218,47.1581788 L56.5170774,61.7799658 L56.5,61.7443608 L47.9271509,79.5468611 C47.596988,80.4073153 46.9878945,81.1490861 46.1397175,81.5941487 C45.997406,81.6712928 45.8437095,81.7187662 45.7013979,81.7721737 C45.6558582,81.7899762 45.6103185,81.8137128 45.5647788,81.8255812 C45.4053898,81.8789887 45.2460009,81.9086595 45.0866119,81.9383303 C44.9955325,81.9561328 44.9044531,81.9798695 44.8076812,81.9917378 C44.693832,81.997672 44.5742902,81.997672 44.460441,81.997672 C44.3181294,82.0036062 44.1815103,81.997672 44.0335063,81.9858037 C43.9651967,81.9798695 43.8968872,81.9680012 43.8342701,81.9501987 C43.6464188,81.9205278 43.46426,81.8789887 43.2821012,81.819647 C43.2650238,81.8137128 43.2479464,81.8077787 43.230869,81.8018445 C43.0600951,81.7425028 42.8950137,81.6890953 42.7242398,81.6000828 C41.8703704,81.1490861 41.2669693,80.4013811 40.9368065,79.5468611 L17.3984724,30.6789976 C17.381395,30.6374584 17.3757026,30.6018534 17.3586252,30.5662484 C17.3017005,30.4416309 17.2618533,30.3170134 17.2163136,30.1805276 C17.1821588,30.0618443 17.1366191,29.9431609 17.1081568,29.8185434 C17.0796945,29.6998601 17.074002,29.5871109 17.0569246,29.4684276 C17.0341548,29.3260076 17.0170774,29.1835876 17.0113849,29.0352334 C17.0113849,28.9936942 17,28.9640234 17,28.9165501 C17,28.8453401 17.0227699,28.7681959 17.0227699,28.6910517 C17.0284623,28.5545659 17.0398472,28.4121459 17.0626171,28.2756601 C17.0796945,28.1510426 17.1138493,28.0264251 17.1423116,27.9077417 C17.1764663,27.7831242 17.2106211,27.6703751 17.2504684,27.5516917 C17.2960081,27.4270742 17.3415478,27.3083909 17.3984724,27.1897075 C17.455397,27.0888267 17.5066292,26.9760775 17.5635538,26.8751967 C17.6375558,26.7624475 17.7058654,26.6615667 17.7798674,26.5547517 C17.848177,26.459805 17.9278715,26.3648584 18.0018735,26.2699117 C18.0929529,26.174965 18.1840323,26.0800184 18.2808042,25.9910059 C18.3661911,25.9197959 18.451578,25.8426517 18.536965,25.7655075 C18.6565067,25.6824292 18.7817409,25.5993508 18.9126675,25.5281408 C18.9695922,25.4925358 19.0151319,25.4509967 19.0720565,25.4213258 C19.1062113,25.4035233 19.1346736,25.3975892 19.1688284,25.3857208 C19.3054475,25.3145108 19.447759,25.2670375 19.5900706,25.21363 C19.6868425,25.178025 19.7893068,25.14242 19.8803862,25.1246175 C20.0113129,25.0830783 20.1422395,25.07121 20.2731662,25.0534075 C20.3927079,25.035605 20.5122496,25.0178025 20.6374838,25.0178025 C20.677331,25.0118683 20.7171783,25 20.7570255,25 L44.8873757,25 C44.9670702,25 45.0467647,25.0237367 45.1207667,25.0237367 C45.2573858,25.035605 45.3883124,25.0415392 45.5192391,25.0652758 C45.6273959,25.0830783 45.7355527,25.1127492 45.838017,25.14242 C45.9746361,25.178025 46.1112552,25.2254983 46.2364894,25.2729717 C46.3218764,25.3085767 46.4129558,25.3501158 46.4983427,25.3975892 C46.6406543,25.462865 46.7772734,25.534075 46.9025076,25.6230875 C46.9651247,25.6646267 47.0277417,25.7061658 47.0846664,25.7536392 C47.226978,25.8604542 47.3579046,25.9732034 47.4888312,26.103755 C47.5343709,26.13936 47.5742182,26.1927675 47.6140654,26.2402409 C47.7392996,26.3707925 47.8588413,26.5191467 47.9613057,26.673435 C48.0011529,26.7268425 48.0296152,26.7861842 48.0694625,26.85146 C48.1320796,26.9523409 48.2003891,27.0472875 48.2573137,27.1600367 L55.4412019,42.0666637 L51.2287794,50.8076914 L43.2707162,34.2810369 C43.2707162,34.2810369 42.5705433,32.8390343 41.0278859,32.8390343 L28.4076956,32.8390343 C26.8935005,32.8390343 27.5538262,34.2810369 27.5538262,34.2810369 L43.7374982,67.8862234 C43.7374982,67.8862234 44.4319787,69.3282259 45.1264591,67.8862234 C45.8209396,66.4442208 51.6614065,54.3147839 51.6614065,54.3147839 L58.5606716,39.9956395 L64.7426863,27.1600367 L64.7426863,27.1659709 C64.788226,27.0591559 64.8679204,26.9701434 64.9248451,26.8692625 C64.9646923,26.7980525 65.0045396,26.7268425 65.0500793,26.6615667 C65.1468511,26.5191467 65.2493155,26.388595 65.3631647,26.2639775 C65.4200894,26.2046359 65.4656291,26.13936 65.5282461,26.0859525 C65.6420954,25.9732034 65.7616371,25.8723225 65.8868713,25.7773758 C65.9608733,25.7180342 66.0405678,25.6646267 66.1202623,25.6112192 C66.2341115,25.534075 66.3536533,25.4687992 66.473195,25.4035233 C66.5756593,25.35605 66.6781236,25.3085767 66.780588,25.2670375 C66.9001297,25.2254983 67.013979,25.1839592 67.1335207,25.1483542 C67.2530624,25.1127492 67.3669117,25.0830783 67.4921458,25.0652758 C67.61738,25.0415392 67.7312293,25.035605 67.8564635,25.0237367 C67.9475429,25.0237367 68.0215449,25 68.1126243,25 L92.2429745,25 C92.2828217,25 92.3283614,25.0118683 92.3739011,25.0178025 C92.4877504,25.0178025 92.6015997,25.035605 92.7097564,25.0474733 C92.8577605,25.07121 92.9886871,25.0830783 93.1253062,25.1246175 C93.2106932,25.14242 93.3017726,25.178025 93.3871595,25.2076958 C93.5465485,25.2551692 93.700245,25.3145108 93.8425566,25.391655 C93.8710189,25.3975892 93.8937887,25.4035233 93.922251,25.4213258 C93.9734832,25.4509967 94.0133305,25.4866017 94.0588702,25.5162725 C94.2068742,25.5934167 94.3434933,25.6824292 94.4744199,25.78331 C94.5541144,25.8426517 94.6281164,25.9079275 94.696426,25.9732034 C94.8045828,26.0740842 94.9127396,26.174965 95.003819,26.2877142 C95.077821,26.3648584 95.1404381,26.4538709 95.2030552,26.531015 C95.2884421,26.6496984 95.3681366,26.7624475 95.4421386,26.8929992 C95.4933708,26.9820117 95.5389105,27.0769584 95.5844502,27.171905 C95.6470673,27.2965225 95.7039919,27.4330084 95.7552241,27.5694942 C95.7893789,27.6763092 95.8235337,27.7831242 95.851996,27.8840051 C95.8861507,28.0145567 95.9203055,28.1510426 95.9430754,28.2815942 C95.9601528,28.4180801 95.9658452,28.5545659 95.9772301,28.6851176 C95.9829226,28.7622617 96,28.8394059 96,28.9165501 C96,28.9640234 95.9886151,28.9996284 95.9886151,29.0411676 C95.9829226,29.1835876 95.9658452,29.3260076 95.9430754,29.4743618 C95.9316904,29.5871109 95.9203055,29.6998601 95.8918432,29.8185434 C95.8633809,29.9490951 95.8235337,30.0737126 95.7779939,30.2042643 C95.7381467,30.3229476 95.6982995,30.4416309 95.6470673,30.5543801 C95.6299899,30.5959193 95.618605,30.6374584 95.6015276,30.6849318 L88.6397777,45.1364444 Z" id="Combined-Shape" fill="#FFFFFF"></path>
        </g>
    </g>
</svg>