<?xml version="1.0" encoding="UTF-8"?>
<svg width="144px" height="16px" viewBox="0 0 144 16" version="1.1" xmlns="http://www.w3.org/2000/svg" xmlns:xlink="http://www.w3.org/1999/xlink">
    <!-- Generator: Sketch 53.2 (72643) - https://sketchapp.com -->
    <title>简单创造不简单</title>
    <desc>Created with Sketch.</desc>
    <g id="简单创造不简单" stroke="none" stroke-width="1" fill="none" fill-rule="evenodd">
        <path d="M3.38671875,7.484375 L8.3203125,7.484375 L8.3203125,11.8671875 L4.20703125,11.8671875 L4.20703125,12.3359375 L3.38671875,12.3359375 L3.38671875,7.484375 Z M4.1484375,6.41796875 L4.1484375,5.6796875 L10.8632812,5.6796875 L10.8632812,12.0898438 C10.8632812,13.0976613 10.3632863,13.6015625 9.36328125,13.6015625 C8.90234145,13.6015625 8.42968992,13.5898439 7.9453125,13.5664062 C7.91406234,13.3398426 7.85546918,13.0429706 7.76953125,12.6757812 C8.33203406,12.7226565 8.8437477,12.7460938 9.3046875,12.7460938 C9.7656273,12.7460938 9.99609375,12.5156273 9.99609375,12.0546875 L9.99609375,6.41796875 L4.1484375,6.41796875 Z M2.28515625,2.08203125 L3.26953125,2.08203125 C3.08203031,2.46484566 2.88281355,2.83202949 2.671875,3.18359375 L6,3.18359375 L6,3.921875 L2.1796875,3.921875 C1.71093516,4.57812828 1.18750289,5.16796613 0.609375,5.69140625 C0.453124219,5.50390531 0.25000125,5.29296992 0,5.05859375 C0.960942305,4.21483953 1.72265344,3.22266195 2.28515625,2.08203125 Z M7.37109375,2.08203125 L8.35546875,2.08203125 C8.17578035,2.46484566 7.9804698,2.83202949 7.76953125,3.18359375 L11.5078125,3.18359375 L11.5078125,3.921875 L7.3359375,3.921875 C6.98437324,4.46875273 6.60937699,4.98827879 6.2109375,5.48046875 C5.99999895,5.33203051 5.74609523,5.16796965 5.44921875,4.98828125 C6.19140996,4.15233957 6.83202855,3.18359926 7.37109375,2.08203125 Z M0.90234375,6.828125 L1.76953125,6.828125 L1.76953125,13.625 L0.90234375,13.625 L0.90234375,6.828125 Z M4.20703125,11.1640625 L7.5,11.1640625 L7.5,10.0039062 L4.20703125,10.0039062 L4.20703125,11.1640625 Z M7.5,8.1875 L4.20703125,8.1875 L4.20703125,9.32421875 L7.5,9.32421875 L7.5,8.1875 Z M1.55859375,5.52734375 L2.1328125,5.0234375 C2.61718992,5.44531461 3.06640418,5.88281023 3.48046875,6.3359375 L2.82421875,6.93359375 C2.45702941,6.47265395 2.03515863,6.00390863 1.55859375,5.52734375 Z M8.8828125,5.62109375 C8.73437426,5.38671758 8.41797117,4.98828406 7.93359375,4.42578125 L8.54296875,3.9921875 C8.96484586,4.39843953 9.30859242,4.76562336 9.57421875,5.09375 L8.8828125,5.62109375 Z M3.90234375,5.609375 C3.62109234,5.21874805 3.31250168,4.83203316 2.9765625,4.44921875 L3.5859375,4.00390625 C3.93750176,4.33203289 4.2734359,4.6914043 4.59375,5.08203125 L3.90234375,5.609375 Z M22.0703125,10.3554688 L27.3789062,10.3554688 L27.3789062,9.03125 L24.1328125,9.03125 L24.1328125,9.58203125 L23.2421875,9.58203125 L23.2421875,3.8984375 L25.6738281,3.8984375 C25.2988263,3.46093531 24.8945334,3.01172105 24.4609375,2.55078125 L25.1289062,2 C25.7070341,2.55469027 26.2148416,3.06640391 26.6523438,3.53515625 L26.21875,3.8984375 L28.9667969,3.8984375 C29.3964865,3.32812215 29.832029,2.70703461 30.2734375,2.03515625 L31.2109375,2.5390625 C30.8085917,3.02734619 30.4199237,3.48046666 30.0449219,3.8984375 L32.4414062,3.8984375 L32.4414062,9.58203125 L31.5507812,9.58203125 L31.5507812,9.03125 L28.2929688,9.03125 L28.2929688,10.3554688 L33.6015625,10.3554688 L33.6015625,11.1992188 L28.2929688,11.1992188 L28.2929688,13.671875 L27.3789062,13.671875 L27.3789062,11.1992188 L22.0703125,11.1992188 L22.0703125,10.3554688 Z M28.2929688,8.2109375 L31.5507812,8.2109375 L31.5507812,6.8515625 L28.2929688,6.8515625 L28.2929688,8.2109375 Z M24.1328125,8.2109375 L27.3789062,8.2109375 L27.3789062,6.8515625 L24.1328125,6.8515625 L24.1328125,8.2109375 Z M31.5507812,4.71875 L28.2929688,4.71875 L28.2929688,6.0546875 L31.5507812,6.0546875 L31.5507812,4.71875 Z M24.1328125,6.0546875 L27.3789062,6.0546875 L27.3789062,4.71875 L24.1328125,4.71875 L24.1328125,6.0546875 Z M48.3828125,2.22265625 L48.2304688,2.46875 C49.2226612,3.38281707 50.1757767,4.30858906 51.0898438,5.24609375 L50.4453125,5.97265625 C49.6093708,5.0429641 48.7187547,4.12500453 47.7734375,3.21875 C47.0078087,4.42969355 46.2187541,5.44140219 45.40625,6.25390625 L50.2226562,6.25390625 C50.175781,7.33984918 50.1367189,8.10156031 50.1054688,8.5390625 C50.0664061,9.70313082 49.5351614,10.2851562 48.5117188,10.2851562 C48.0976542,10.2851562 47.5898468,10.2734376 46.9882812,10.25 C46.941406,9.90624828 46.8867191,9.59375141 46.8242188,9.3125 C47.3476589,9.39843793 47.8476539,9.44531246 48.3242188,9.453125 C48.8867216,9.46093754 49.1874998,9.10547234 49.2265625,8.38671875 C49.2500001,8.01171687 49.2734374,7.57422125 49.296875,7.07421875 L46.1914062,7.07421875 L46.1914062,11.7734375 C46.1914062,12.2109397 46.4257789,12.4296875 46.8945312,12.4296875 L48.8164062,12.4296875 C49.4335968,12.4296875 49.7812496,12.2265645 49.859375,11.8203125 C49.9531255,11.4453106 50.0234373,10.9765653 50.0703125,10.4140625 C50.3750015,10.5390631 50.6835922,10.6523432 50.9960938,10.7539062 C50.9179684,11.2695338 50.8203131,11.7460916 50.703125,12.1835938 C50.5078115,12.9101599 49.9570358,13.2734375 49.0507812,13.2734375 L46.71875,13.2734375 C45.7578077,13.2734375 45.2773438,12.7968798 45.2773438,11.84375 L45.2773438,6.39453125 C45.0273425,6.62890742 44.7812512,6.84374902 44.5390625,7.0390625 C44.3046863,6.65624809 44.1250006,6.3750009 44,6.1953125 C45.2812564,5.21874512 46.3828079,3.89453961 47.3046875,2.22265625 L48.3828125,2.22265625 Z M53.9960938,2.3046875 L54.9335938,2.3046875 L54.9335938,12.0429688 C54.9335938,12.9960985 54.4609422,13.4765625 53.515625,13.484375 C53.1874984,13.484375 52.5742232,13.4804688 51.6757812,13.4726562 C51.6367186,13.1132795 51.5742192,12.7578143 51.4882812,12.40625 C52.3164104,12.4765629 52.8984358,12.5117188 53.234375,12.5117188 C53.74219,12.5117188 53.9960938,12.2617212 53.9960938,11.7617188 L53.9960938,2.3046875 Z M52.4492188,10.5664062 L51.546875,10.5664062 L51.546875,3.34765625 L52.4492188,3.34765625 L52.4492188,10.5664062 Z M70.3828125,7.953125 L76.3476562,7.953125 L76.3476562,11.7148438 L75.4453125,11.7148438 L75.4453125,11.234375 L71.2851562,11.234375 L71.2851562,11.7148438 L70.3828125,11.7148438 L70.3828125,7.953125 Z M69.3515625,6.1484375 L73.0664062,6.1484375 L73.0664062,4.5546875 L71.0742188,4.5546875 C70.8632802,5.05469 70.63672,5.51171668 70.3945312,5.92578125 C70.1914052,5.79296809 69.9218767,5.65234449 69.5859375,5.50390625 C70.1562529,4.58202664 70.5820298,3.55469316 70.8632812,2.421875 L71.7539062,2.62109375 C71.6367182,3.01953324 71.5136725,3.3984357 71.3847656,3.7578125 L73.0664062,3.7578125 L73.0664062,2.09375 L73.9804688,2.09375 L73.9804688,3.7578125 L76.9804688,3.7578125 L76.9804688,4.5546875 L73.9804688,4.5546875 L73.9804688,6.1484375 L77.5546875,6.1484375 L77.5546875,6.9453125 L69.3515625,6.9453125 L69.3515625,6.1484375 Z M70.828125,12.4296875 L73.7460938,12.4765625 L77.6484375,12.3828125 C77.5624996,12.6406263 77.4531257,12.949217 77.3203125,13.3085938 L73.4414062,13.3320312 L70.6523438,13.2617188 C69.3242121,13.2460937 68.3945339,12.789067 67.8632812,11.890625 C67.5429671,12.1875015 67.0742218,12.7109338 66.4570312,13.4609375 L65.9765625,12.4882812 C66.6679722,11.8203092 67.1679672,11.3417983 67.4765625,11.0527344 L67.4765625,7.109375 L66.0820312,7.109375 L66.0820312,6.2421875 L68.3789062,6.2421875 L68.3789062,11.2519531 C68.8593774,12.0293008 69.6757755,12.421875 70.828125,12.4296875 Z M75.4453125,8.75 L71.2851562,8.75 L71.2851562,10.4375 L75.4453125,10.4375 L75.4453125,8.75 Z M67.4414062,2.3046875 C67.8398457,2.78906492 68.3867153,3.52733879 69.0820312,4.51953125 L68.25,5.10546875 C67.6171843,4.11327629 67.0976583,3.34765895 66.6914062,2.80859375 L67.4414062,2.3046875 Z M88.2578125,3.11328125 L99.4257812,3.11328125 L99.4257812,4.02734375 L95.1132812,4.02734375 C94.7382794,4.67578449 94.2382844,5.44530805 93.6132812,6.3359375 L94.2929688,6.3359375 L94.2929688,13.6835938 L93.2851562,13.6835938 L93.2851562,6.69921875 C91.9492121,8.34766449 90.3750091,9.75390043 88.5625,10.9179688 C88.3671865,10.6367173 88.1484387,10.3554702 87.90625,10.0742188 C90.3671998,8.53514855 92.351555,6.51954371 93.859375,4.02734375 L88.2578125,4.02734375 L88.2578125,3.11328125 Z M95.4648438,6.69921875 C96.9257886,7.5898482 98.3359307,8.49608914 99.6953125,9.41796875 L99.0273438,10.34375 C97.4179607,9.14843152 96.0390682,8.19922227 94.890625,7.49609375 L95.4648438,6.69921875 Z M113.386719,7.484375 L118.320312,7.484375 L118.320312,11.8671875 L114.207031,11.8671875 L114.207031,12.3359375 L113.386719,12.3359375 L113.386719,7.484375 Z M114.148438,6.41796875 L114.148438,5.6796875 L120.863281,5.6796875 L120.863281,12.0898438 C120.863281,13.0976613 120.363286,13.6015625 119.363281,13.6015625 C118.902341,13.6015625 118.42969,13.5898439 117.945312,13.5664062 C117.914062,13.3398426 117.855469,13.0429706 117.769531,12.6757812 C118.332034,12.7226565 118.843748,12.7460938 119.304688,12.7460938 C119.765627,12.7460938 119.996094,12.5156273 119.996094,12.0546875 L119.996094,6.41796875 L114.148438,6.41796875 Z M112.285156,2.08203125 L113.269531,2.08203125 C113.08203,2.46484566 112.882814,2.83202949 112.671875,3.18359375 L116,3.18359375 L116,3.921875 L112.179688,3.921875 C111.710935,4.57812828 111.187503,5.16796613 110.609375,5.69140625 C110.453124,5.50390531 110.250001,5.29296992 110,5.05859375 C110.960942,4.21483953 111.722653,3.22266195 112.285156,2.08203125 Z M117.371094,2.08203125 L118.355469,2.08203125 C118.17578,2.46484566 117.98047,2.83202949 117.769531,3.18359375 L121.507812,3.18359375 L121.507812,3.921875 L117.335938,3.921875 C116.984373,4.46875273 116.609377,4.98827879 116.210938,5.48046875 C115.999999,5.33203051 115.746095,5.16796965 115.449219,4.98828125 C116.19141,4.15233957 116.832029,3.18359926 117.371094,2.08203125 Z M110.902344,6.828125 L111.769531,6.828125 L111.769531,13.625 L110.902344,13.625 L110.902344,6.828125 Z M114.207031,11.1640625 L117.5,11.1640625 L117.5,10.0039062 L114.207031,10.0039062 L114.207031,11.1640625 Z M117.5,8.1875 L114.207031,8.1875 L114.207031,9.32421875 L117.5,9.32421875 L117.5,8.1875 Z M111.558594,5.52734375 L112.132812,5.0234375 C112.61719,5.44531461 113.066404,5.88281023 113.480469,6.3359375 L112.824219,6.93359375 C112.457029,6.47265395 112.035159,6.00390863 111.558594,5.52734375 Z M118.882812,5.62109375 C118.734374,5.38671758 118.417971,4.98828406 117.933594,4.42578125 L118.542969,3.9921875 C118.964846,4.39843953 119.308592,4.76562336 119.574219,5.09375 L118.882812,5.62109375 Z M113.902344,5.609375 C113.621092,5.21874805 113.312502,4.83203316 112.976562,4.44921875 L113.585938,4.00390625 C113.937502,4.33203289 114.273436,4.6914043 114.59375,5.08203125 L113.902344,5.609375 Z M132.070312,10.3554688 L137.378906,10.3554688 L137.378906,9.03125 L134.132812,9.03125 L134.132812,9.58203125 L133.242188,9.58203125 L133.242188,3.8984375 L135.673828,3.8984375 C135.298826,3.46093531 134.894533,3.01172105 134.460938,2.55078125 L135.128906,2 C135.707034,2.55469027 136.214842,3.06640391 136.652344,3.53515625 L136.21875,3.8984375 L138.966797,3.8984375 C139.396487,3.32812215 139.832029,2.70703461 140.273438,2.03515625 L141.210938,2.5390625 C140.808592,3.02734619 140.419924,3.48046666 140.044922,3.8984375 L142.441406,3.8984375 L142.441406,9.58203125 L141.550781,9.58203125 L141.550781,9.03125 L138.292969,9.03125 L138.292969,10.3554688 L143.601562,10.3554688 L143.601562,11.1992188 L138.292969,11.1992188 L138.292969,13.671875 L137.378906,13.671875 L137.378906,11.1992188 L132.070312,11.1992188 L132.070312,10.3554688 Z M138.292969,8.2109375 L141.550781,8.2109375 L141.550781,6.8515625 L138.292969,6.8515625 L138.292969,8.2109375 Z M134.132812,8.2109375 L137.378906,8.2109375 L137.378906,6.8515625 L134.132812,6.8515625 L134.132812,8.2109375 Z M141.550781,4.71875 L138.292969,4.71875 L138.292969,6.0546875 L141.550781,6.0546875 L141.550781,4.71875 Z M134.132812,6.0546875 L137.378906,6.0546875 L137.378906,4.71875 L134.132812,4.71875 L134.132812,6.0546875 Z" fill="#6C6C6C" fill-rule="nonzero"></path>
    </g>
</svg>