<?xml version="1.0" encoding="UTF-8"?>
<svg width="147px" height="43px" viewBox="0 0 147 43" version="1.1" xmlns="http://www.w3.org/2000/svg" xmlns:xlink="http://www.w3.org/1999/xlink">
    <!-- Generator: Sketch 53.2 (72643) - https://sketchapp.com -->
    <title>logo</title>
    <desc>Created with Sketch.</desc>
    <g id="页面-1" stroke="none" stroke-width="1" fill="none" fill-rule="evenodd">
        <g id="官网3合1" transform="translate(-1411.000000, -5289.000000)">
            <g id="底部" transform="translate(0.000000, 5075.000000)">
                <g id="logo" transform="translate(1411.164062, 214.000000)">
                    <path d="M3.38671875,36.4238281 L8.3203125,36.4238281 L8.3203125,40.8066406 L4.20703125,40.8066406 L4.20703125,41.2753906 L3.38671875,41.2753906 L3.38671875,36.4238281 Z M4.1484375,35.3574219 L4.1484375,34.6191406 L10.8632812,34.6191406 L10.8632812,41.0292969 C10.8632812,42.0371144 10.3632863,42.5410156 9.36328125,42.5410156 C8.90234145,42.5410156 8.42968992,42.529297 7.9453125,42.5058594 C7.91406234,42.2792957 7.85546918,41.9824237 7.76953125,41.6152344 C8.33203406,41.6621096 8.8437477,41.6855469 9.3046875,41.6855469 C9.7656273,41.6855469 9.99609375,41.4550804 9.99609375,40.9941406 L9.99609375,35.3574219 L4.1484375,35.3574219 Z M2.28515625,31.0214844 L3.26953125,31.0214844 C3.08203031,31.4042988 2.88281355,31.7714826 2.671875,32.1230469 L6,32.1230469 L6,32.8613281 L2.1796875,32.8613281 C1.71093516,33.5175814 1.18750289,34.1074193 0.609375,34.6308594 C0.453124219,34.4433584 0.25000125,34.232423 0,33.9980469 C0.960942305,33.1542927 1.72265344,32.1621151 2.28515625,31.0214844 Z M7.37109375,31.0214844 L8.35546875,31.0214844 C8.17578035,31.4042988 7.9804698,31.7714826 7.76953125,32.1230469 L11.5078125,32.1230469 L11.5078125,32.8613281 L7.3359375,32.8613281 C6.98437324,33.4082059 6.60937699,33.9277319 6.2109375,34.4199219 C5.99999895,34.2714836 5.74609523,34.1074228 5.44921875,33.9277344 C6.19140996,33.0917927 6.83202855,32.1230524 7.37109375,31.0214844 Z M0.90234375,35.7675781 L1.76953125,35.7675781 L1.76953125,42.5644531 L0.90234375,42.5644531 L0.90234375,35.7675781 Z M4.20703125,40.1035156 L7.5,40.1035156 L7.5,38.9433594 L4.20703125,38.9433594 L4.20703125,40.1035156 Z M7.5,37.1269531 L4.20703125,37.1269531 L4.20703125,38.2636719 L7.5,38.2636719 L7.5,37.1269531 Z M1.55859375,34.4667969 L2.1328125,33.9628906 C2.61718992,34.3847677 3.06640418,34.8222634 3.48046875,35.2753906 L2.82421875,35.8730469 C2.45702941,35.4121071 2.03515863,34.9433618 1.55859375,34.4667969 Z M8.8828125,34.5605469 C8.73437426,34.3261707 8.41797117,33.9277372 7.93359375,33.3652344 L8.54296875,32.9316406 C8.96484586,33.3378927 9.30859242,33.7050765 9.57421875,34.0332031 L8.8828125,34.5605469 Z M3.90234375,34.5488281 C3.62109234,34.1582012 3.31250168,33.7714863 2.9765625,33.3886719 L3.5859375,32.9433594 C3.93750176,33.271486 4.2734359,33.6308574 4.59375,34.0214844 L3.90234375,34.5488281 Z M22.0703125,39.2949219 L27.3789062,39.2949219 L27.3789062,37.9707031 L24.1328125,37.9707031 L24.1328125,38.5214844 L23.2421875,38.5214844 L23.2421875,32.8378906 L25.6738281,32.8378906 C25.2988263,32.4003884 24.8945334,31.9511742 24.4609375,31.4902344 L25.1289062,30.9394531 C25.7070341,31.4941434 26.2148416,32.005857 26.6523438,32.4746094 L26.21875,32.8378906 L28.9667969,32.8378906 C29.3964865,32.2675753 29.832029,31.6464877 30.2734375,30.9746094 L31.2109375,31.4785156 C30.8085917,31.9667993 30.4199237,32.4199198 30.0449219,32.8378906 L32.4414062,32.8378906 L32.4414062,38.5214844 L31.5507812,38.5214844 L31.5507812,37.9707031 L28.2929688,37.9707031 L28.2929688,39.2949219 L33.6015625,39.2949219 L33.6015625,40.1386719 L28.2929688,40.1386719 L28.2929688,42.6113281 L27.3789062,42.6113281 L27.3789062,40.1386719 L22.0703125,40.1386719 L22.0703125,39.2949219 Z M28.2929688,37.1503906 L31.5507812,37.1503906 L31.5507812,35.7910156 L28.2929688,35.7910156 L28.2929688,37.1503906 Z M24.1328125,37.1503906 L27.3789062,37.1503906 L27.3789062,35.7910156 L24.1328125,35.7910156 L24.1328125,37.1503906 Z M31.5507812,33.6582031 L28.2929688,33.6582031 L28.2929688,34.9941406 L31.5507812,34.9941406 L31.5507812,33.6582031 Z M24.1328125,34.9941406 L27.3789062,34.9941406 L27.3789062,33.6582031 L24.1328125,33.6582031 L24.1328125,34.9941406 Z M48.3828125,31.1621094 L48.2304688,31.4082031 C49.2226612,32.3222702 50.1757767,33.2480422 51.0898438,34.1855469 L50.4453125,34.9121094 C49.6093708,33.9824172 48.7187547,33.0644577 47.7734375,32.1582031 C47.0078087,33.3691467 46.2187541,34.3808553 45.40625,35.1933594 L50.2226562,35.1933594 C50.175781,36.2793023 50.1367189,37.0410134 50.1054688,37.4785156 C50.0664061,38.6425839 49.5351614,39.2246094 48.5117188,39.2246094 C48.0976542,39.2246094 47.5898468,39.2128907 46.9882812,39.1894531 C46.941406,38.8457014 46.8867191,38.5332045 46.8242188,38.2519531 C47.3476589,38.3378911 47.8476539,38.3847656 48.3242188,38.3925781 C48.8867216,38.4003907 49.1874998,38.0449255 49.2265625,37.3261719 C49.2500001,36.95117 49.2734374,36.5136744 49.296875,36.0136719 L46.1914062,36.0136719 L46.1914062,40.7128906 C46.1914062,41.1503928 46.4257789,41.3691406 46.8945312,41.3691406 L48.8164062,41.3691406 C49.4335968,41.3691406 49.7812496,41.1660177 49.859375,40.7597656 C49.9531255,40.3847637 50.0234373,39.9160184 50.0703125,39.3535156 C50.3750015,39.4785163 50.6835922,39.5917964 50.9960938,39.6933594 C50.9179684,40.208987 50.8203131,40.6855447 50.703125,41.1230469 C50.5078115,41.849613 49.9570358,42.2128906 49.0507812,42.2128906 L46.71875,42.2128906 C45.7578077,42.2128906 45.2773438,41.7363329 45.2773438,40.7832031 L45.2773438,35.3339844 C45.0273425,35.5683605 44.7812512,35.7832021 44.5390625,35.9785156 C44.3046863,35.5957012 44.1250006,35.314454 44,35.1347656 C45.2812564,34.1581982 46.3828079,32.8339927 47.3046875,31.1621094 L48.3828125,31.1621094 Z M53.9960938,31.2441406 L54.9335938,31.2441406 L54.9335938,40.9824219 C54.9335938,41.9355516 54.4609422,42.4160156 53.515625,42.4238281 C53.1874984,42.4238281 52.5742232,42.4199219 51.6757812,42.4121094 C51.6367186,42.0527326 51.5742192,41.6972674 51.4882812,41.3457031 C52.3164104,41.416016 52.8984358,41.4511719 53.234375,41.4511719 C53.74219,41.4511719 53.9960938,41.2011744 53.9960938,40.7011719 L53.9960938,31.2441406 Z M52.4492188,39.5058594 L51.546875,39.5058594 L51.546875,32.2871094 L52.4492188,32.2871094 L52.4492188,39.5058594 Z M70.3828125,36.8925781 L76.3476562,36.8925781 L76.3476562,40.6542969 L75.4453125,40.6542969 L75.4453125,40.1738281 L71.2851562,40.1738281 L71.2851562,40.6542969 L70.3828125,40.6542969 L70.3828125,36.8925781 Z M69.3515625,35.0878906 L73.0664062,35.0878906 L73.0664062,33.4941406 L71.0742188,33.4941406 C70.8632802,33.9941431 70.63672,34.4511698 70.3945312,34.8652344 C70.1914052,34.7324212 69.9218767,34.5917976 69.5859375,34.4433594 C70.1562529,33.5214798 70.5820298,32.4941463 70.8632812,31.3613281 L71.7539062,31.5605469 C71.6367182,31.9589864 71.5136725,32.3378888 71.3847656,32.6972656 L73.0664062,32.6972656 L73.0664062,31.0332031 L73.9804688,31.0332031 L73.9804688,32.6972656 L76.9804688,32.6972656 L76.9804688,33.4941406 L73.9804688,33.4941406 L73.9804688,35.0878906 L77.5546875,35.0878906 L77.5546875,35.8847656 L69.3515625,35.8847656 L69.3515625,35.0878906 Z M70.828125,41.3691406 L73.7460938,41.4160156 L77.6484375,41.3222656 C77.5624996,41.5800794 77.4531257,41.8886701 77.3203125,42.2480469 L73.4414062,42.2714844 L70.6523438,42.2011719 C69.3242121,42.1855468 68.3945339,41.7285201 67.8632812,40.8300781 C67.5429671,41.1269546 67.0742218,41.6503869 66.4570312,42.4003906 L65.9765625,41.4277344 C66.6679722,40.7597623 67.1679672,40.2812514 67.4765625,39.9921875 L67.4765625,36.0488281 L66.0820312,36.0488281 L66.0820312,35.1816406 L68.3789062,35.1816406 L68.3789062,40.1914062 C68.8593774,40.9687539 69.6757755,41.3613281 70.828125,41.3691406 Z M75.4453125,37.6894531 L71.2851562,37.6894531 L71.2851562,39.3769531 L75.4453125,39.3769531 L75.4453125,37.6894531 Z M67.4414062,31.2441406 C67.8398457,31.728518 68.3867153,32.4667919 69.0820312,33.4589844 L68.25,34.0449219 C67.6171843,33.0527294 67.0976583,32.2871121 66.6914062,31.7480469 L67.4414062,31.2441406 Z M88.2578125,32.0527344 L99.4257812,32.0527344 L99.4257812,32.9667969 L95.1132812,32.9667969 C94.7382794,33.6152376 94.2382844,34.3847612 93.6132812,35.2753906 L94.2929688,35.2753906 L94.2929688,42.6230469 L93.2851562,42.6230469 L93.2851562,35.6386719 C91.9492121,37.2871176 90.3750091,38.6933536 88.5625,39.8574219 C88.3671865,39.5761705 88.1484387,39.2949233 87.90625,39.0136719 C90.3671998,37.4746017 92.351555,35.4589968 93.859375,32.9667969 L88.2578125,32.9667969 L88.2578125,32.0527344 Z M95.4648438,35.6386719 C96.9257886,36.5293013 98.3359307,37.4355423 99.6953125,38.3574219 L99.0273438,39.2832031 C97.4179607,38.0878846 96.0390682,37.1386754 94.890625,36.4355469 L95.4648438,35.6386719 Z M113.386719,36.4238281 L118.320312,36.4238281 L118.320312,40.8066406 L114.207031,40.8066406 L114.207031,41.2753906 L113.386719,41.2753906 L113.386719,36.4238281 Z M114.148438,35.3574219 L114.148438,34.6191406 L120.863281,34.6191406 L120.863281,41.0292969 C120.863281,42.0371144 120.363286,42.5410156 119.363281,42.5410156 C118.902341,42.5410156 118.42969,42.529297 117.945312,42.5058594 C117.914062,42.2792957 117.855469,41.9824237 117.769531,41.6152344 C118.332034,41.6621096 118.843748,41.6855469 119.304688,41.6855469 C119.765627,41.6855469 119.996094,41.4550804 119.996094,40.9941406 L119.996094,35.3574219 L114.148438,35.3574219 Z M112.285156,31.0214844 L113.269531,31.0214844 C113.08203,31.4042988 112.882814,31.7714826 112.671875,32.1230469 L116,32.1230469 L116,32.8613281 L112.179688,32.8613281 C111.710935,33.5175814 111.187503,34.1074193 110.609375,34.6308594 C110.453124,34.4433584 110.250001,34.232423 110,33.9980469 C110.960942,33.1542927 111.722653,32.1621151 112.285156,31.0214844 Z M117.371094,31.0214844 L118.355469,31.0214844 C118.17578,31.4042988 117.98047,31.7714826 117.769531,32.1230469 L121.507812,32.1230469 L121.507812,32.8613281 L117.335938,32.8613281 C116.984373,33.4082059 116.609377,33.9277319 116.210938,34.4199219 C115.999999,34.2714836 115.746095,34.1074228 115.449219,33.9277344 C116.19141,33.0917927 116.832029,32.1230524 117.371094,31.0214844 Z M110.902344,35.7675781 L111.769531,35.7675781 L111.769531,42.5644531 L110.902344,42.5644531 L110.902344,35.7675781 Z M114.207031,40.1035156 L117.5,40.1035156 L117.5,38.9433594 L114.207031,38.9433594 L114.207031,40.1035156 Z M117.5,37.1269531 L114.207031,37.1269531 L114.207031,38.2636719 L117.5,38.2636719 L117.5,37.1269531 Z M111.558594,34.4667969 L112.132812,33.9628906 C112.61719,34.3847677 113.066404,34.8222634 113.480469,35.2753906 L112.824219,35.8730469 C112.457029,35.4121071 112.035159,34.9433618 111.558594,34.4667969 Z M118.882812,34.5605469 C118.734374,34.3261707 118.417971,33.9277372 117.933594,33.3652344 L118.542969,32.9316406 C118.964846,33.3378927 119.308592,33.7050765 119.574219,34.0332031 L118.882812,34.5605469 Z M113.902344,34.5488281 C113.621092,34.1582012 113.312502,33.7714863 112.976562,33.3886719 L113.585938,32.9433594 C113.937502,33.271486 114.273436,33.6308574 114.59375,34.0214844 L113.902344,34.5488281 Z M132.070312,39.2949219 L137.378906,39.2949219 L137.378906,37.9707031 L134.132812,37.9707031 L134.132812,38.5214844 L133.242188,38.5214844 L133.242188,32.8378906 L135.673828,32.8378906 C135.298826,32.4003884 134.894533,31.9511742 134.460938,31.4902344 L135.128906,30.9394531 C135.707034,31.4941434 136.214842,32.005857 136.652344,32.4746094 L136.21875,32.8378906 L138.966797,32.8378906 C139.396487,32.2675753 139.832029,31.6464877 140.273438,30.9746094 L141.210938,31.4785156 C140.808592,31.9667993 140.419924,32.4199198 140.044922,32.8378906 L142.441406,32.8378906 L142.441406,38.5214844 L141.550781,38.5214844 L141.550781,37.9707031 L138.292969,37.9707031 L138.292969,39.2949219 L143.601562,39.2949219 L143.601562,40.1386719 L138.292969,40.1386719 L138.292969,42.6113281 L137.378906,42.6113281 L137.378906,40.1386719 L132.070312,40.1386719 L132.070312,39.2949219 Z M138.292969,37.1503906 L141.550781,37.1503906 L141.550781,35.7910156 L138.292969,35.7910156 L138.292969,37.1503906 Z M134.132812,37.1503906 L137.378906,37.1503906 L137.378906,35.7910156 L134.132812,35.7910156 L134.132812,37.1503906 Z M141.550781,33.6582031 L138.292969,33.6582031 L138.292969,34.9941406 L141.550781,34.9941406 L141.550781,33.6582031 Z M134.132812,34.9941406 L137.378906,34.9941406 L137.378906,33.6582031 L134.132812,33.6582031 L134.132812,34.9941406 Z" id="简单创造不简单" fill="#6C6C6C" fill-rule="nonzero"></path>
                    <g transform="translate(58.835938, 0.000000)" fill="#3B3B3B" id="Group-15">
                        <g>
                            <g id="Group-7">
                                <g id="Group-3" transform="translate(61.164756, 0.000000)">
                                    <path d="M0.835244417,11 C0.835244417,4.92500589 5.7602503,-2.84217094e-14 11.8352444,-2.84217094e-14 C17.9102385,-2.84217094e-14 22.8352444,4.92500589 22.8352444,11 C22.8352444,17.0749941 17.9102385,22 11.8352444,22 C5.7602503,22 0.835244417,17.0749941 0.835244417,11 Z M25.3358132,21 C24.5075994,21 23.8352444,20.3285281 23.8352444,19.5 C23.8352444,18.6714719 24.5075994,18 25.3358132,18 C26.1640271,18 26.8352444,18.6714719 26.8352444,19.5 C26.8352444,20.3285281 26.1640271,21 25.3358132,21 Z M18.8251565,7.78497575 C18.8291917,7.7589487 18.832218,7.73396273 18.8332268,7.70897677 C18.8332268,7.7016892 18.8352444,7.6954427 18.8352444,7.68711405 C18.8352444,7.67357998 18.832218,7.66004592 18.8312093,7.64651186 C18.8291917,7.62360805 18.8281829,7.59966317 18.8251565,7.57571829 C18.8211213,7.55281448 18.8150686,7.5288696 18.8090159,7.5059658 C18.8039719,7.48826741 18.7979192,7.46952793 18.7918664,7.45078846 C18.7827873,7.42684358 18.7726994,7.40289869 18.7616027,7.38103597 C18.7535324,7.36437866 18.745462,7.34772135 18.7363829,7.33210512 C18.7232686,7.30920132 18.7091456,7.28942077 18.6940137,7.26859913 C18.682917,7.25506506 18.6718203,7.23944884 18.658706,7.22591477 C18.6425654,7.20613421 18.6233983,7.18843582 18.6042313,7.17073743 C18.5921258,7.15928553 18.5790115,7.14783363 18.5648885,7.13742281 C18.5416863,7.11972442 18.5174753,7.10410819 18.4912467,7.09057412 C18.4831764,7.08536872 18.4761149,7.07912222 18.4670357,7.07391681 C18.4619918,7.07079357 18.4579566,7.06975249 18.4529127,7.0687114 C18.4276929,7.05517734 18.4004555,7.04476652 18.3722094,7.03643787 C18.3570775,7.03123246 18.3409369,7.02498597 18.325805,7.02186272 C18.301594,7.01457515 18.2783918,7.01249298 18.2521633,7.00832866 C18.2329963,7.00624649 18.2128204,7.00312325 18.1926446,7.00312325 C18.1845743,7.00208216 18.176504,7 18.1694424,7 L13.8931778,7 C13.8770372,7 13.8639229,7.00416433 13.8477822,7.00416433 C13.8255888,7.00624649 13.805413,7.00728757 13.7832196,7.0114519 C13.7610262,7.01457515 13.7408504,7.01978056 13.7196658,7.02602705 C13.6984812,7.03227354 13.6783054,7.03956111 13.6571208,7.04684869 C13.6389625,7.05413626 13.6208043,7.06246491 13.6026461,7.07079357 C13.5814615,7.08224547 13.5602768,7.09369737 13.540101,7.10723143 C13.525978,7.11660117 13.5118549,7.12597091 13.4987406,7.13638173 C13.4765472,7.15303904 13.4553626,7.17073743 13.4351868,7.19051799 C13.4240901,7.19988772 13.4160197,7.21133962 13.4059318,7.22175044 C13.385756,7.24361316 13.3675978,7.26651696 13.3504483,7.29150293 C13.342378,7.30295483 13.3353165,7.31544781 13.3282549,7.3279408 C13.318167,7.34563919 13.304044,7.36125542 13.2959736,7.37999489 L13.2959736,7.37895381 L12.2004267,9.63081394 L10.9777722,12.1429445 C10.9777722,12.1429445 9.9427527,14.2709159 9.81968021,14.5238988 C9.69660773,14.7768817 9.57353524,14.5238988 9.57353524,14.5238988 L6.70554273,8.62825208 C6.70554273,8.62825208 6.58852299,8.37526918 6.85686136,8.37526918 L9.09335077,8.37526918 C9.3667331,8.37526918 9.49081438,8.62825208 9.49081438,8.62825208 L10.9011041,11.5276652 L11.6476093,9.99415152 L10.3745152,7.37895381 C10.3644273,7.35917325 10.3523218,7.34251594 10.3412251,7.32481755 C10.3341636,7.31336565 10.3291196,7.30295483 10.3220581,7.29358509 C10.3038998,7.26651696 10.2827152,7.24048992 10.2605218,7.21758612 C10.2534603,7.20925746 10.2463988,7.19988772 10.2383284,7.19364123 C10.2151262,7.17073743 10.1919241,7.15095687 10.1667043,7.1322174 C10.1566164,7.12388875 10.1455197,7.11660117 10.134423,7.1093136 C10.1122296,7.09369737 10.0880186,7.08120439 10.0627988,7.06975249 C10.047667,7.06142383 10.0315263,7.05413626 10.0163944,7.04788977 C9.99420104,7.03956111 9.96999006,7.03123246 9.94577908,7.02498597 C9.92762084,7.01978056 9.90845381,7.01457515 9.88928679,7.0114519 C9.8660846,7.00728757 9.84288241,7.00624649 9.81867142,7.00416433 C9.80555714,7.00416433 9.79143407,7 9.777311,7 L5.50104641,7 C5.49398487,7 5.48692333,7.00208216 5.4798618,7.00312325 C5.4576684,7.00312325 5.43648379,7.00624649 5.41529918,7.00936974 C5.39209699,7.01249298 5.3688948,7.01457515 5.34569261,7.02186272 C5.32955195,7.02498597 5.31139372,7.03123246 5.29424427,7.03747895 C5.2690245,7.04684869 5.24380473,7.05517734 5.21959375,7.06767032 C5.213541,7.06975249 5.20849705,7.07079357 5.2024443,7.07391681 C5.19235639,7.07912222 5.18428607,7.0864098 5.17419816,7.09265629 C5.15099597,7.10514927 5.12880257,7.11972442 5.10761796,7.13429956 C5.09248609,7.14783363 5.07735423,7.16136769 5.06222237,7.17386068 C5.04507292,7.1894769 5.02893227,7.20613421 5.01279161,7.22279153 C4.99967733,7.23944884 4.98555426,7.25610615 4.97344877,7.27276346 C4.96033449,7.29150293 4.948229,7.30920132 4.93511472,7.32898188 C4.92502681,7.34668027 4.91594769,7.36646083 4.90585978,7.38415922 C4.89577187,7.40498086 4.88770154,7.42580249 4.87963122,7.44766521 C4.87256968,7.46848685 4.86651693,7.48826741 4.86046419,7.51013013 C4.85542023,7.53095177 4.84936749,7.55281448 4.84634112,7.5746772 C4.84230595,7.59862209 4.84028837,7.62360805 4.83927958,7.64755294 C4.83927958,7.661087 4.83524442,7.67462107 4.83524442,7.68711405 C4.83524442,7.6954427 4.837262,7.70064811 4.837262,7.70793569 C4.83827079,7.73396273 4.84129716,7.7589487 4.84533233,7.78393467 C4.8483587,7.8047563 4.84936749,7.82453686 4.85441144,7.8453585 C4.8594554,7.86722122 4.86752573,7.88804285 4.87357847,7.90886449 C4.8816488,7.93280938 4.88871033,7.9546721 4.89879824,7.97653482 C4.90182462,7.98278131 4.90283341,7.9890278 4.90585978,7.99631537 L9.07721012,16.5696248 C9.13571999,16.7195405 9.24265182,16.8507169 9.39397046,16.9298391 C9.42423419,16.9454553 9.45348912,16.9548251 9.48375285,16.9652359 C9.48677922,16.966277 9.48980559,16.967318 9.49283197,16.9683591 C9.52511327,16.9787699 9.55739458,16.9860575 9.59068468,16.9912629 C9.60178138,16.9943862 9.61388687,16.9964683 9.62599236,16.9975094 C9.65222093,16.9995916 9.67643191,17.0006327 9.70165168,16.9995916 C9.7218275,16.9995916 9.74301211,16.9995916 9.76318792,16.9985505 C9.78033737,16.9964683 9.79647802,16.992304 9.81261868,16.9891808 C9.84086482,16.9839754 9.86911097,16.9787699 9.89735711,16.9694002 C9.90542744,16.967318 9.91349777,16.9631537 9.92156809,16.9600305 C9.94678787,16.9506607 9.97402522,16.9423321 9.99924499,16.928798 C10.1495548,16.8507169 10.2574955,16.7205816 10.3160053,16.5696248 L11.8352444,13.4463791 L11.8382708,13.4526256 L13.077066,10.8873998 L13.0790836,10.890523 L14.1796745,8.62825208 C14.1796745,8.62825208 14.3108173,8.37526918 14.5771381,8.37526918 L16.8146363,8.37526918 C17.086001,8.37526918 16.9649461,8.62825208 16.9649461,8.62825208 C16.9649461,8.62825208 14.2200261,14.2698749 14.0969536,14.5228578 C13.9738811,14.7758407 13.8508086,14.5228578 13.8508086,14.5228578 L12.7693848,12.2991068 L12.0248971,13.8367848 L13.3524659,16.5665015 C13.409967,16.7184995 13.5189164,16.8507169 13.6722526,16.9298391 C13.7015076,16.9454553 13.7317713,16.9558661 13.762035,16.9652359 C13.7650614,16.966277 13.767079,16.967318 13.7690966,16.9683591 C13.8023867,16.9787699 13.834668,16.9870986 13.8679581,16.992304 C13.8800636,16.9943862 13.8911603,16.9964683 13.9032657,16.9975094 C13.9284855,16.9995916 13.9526965,17.0006327 13.9789251,16.9995916 C13.9991009,16.9995916 14.0202855,16.9995916 14.0404613,16.9985505 C14.056602,16.9964683 14.0727426,16.9933451 14.0888833,16.9902218 C14.1181382,16.9839754 14.1463844,16.9787699 14.1746305,16.9694002 C14.181692,16.967318 14.1887536,16.9641948 14.1968239,16.9610715 C14.2230525,16.9506607 14.2502898,16.9423321 14.2765184,16.928798 C14.427837,16.8507169 14.5347688,16.7205816 14.5932787,16.5696248 L18.7646291,7.99735645 C18.7676554,7.9890278 18.769673,7.98174022 18.7726994,7.97445265 C18.7817785,7.9546721 18.78884,7.93385046 18.7959016,7.91302882 C18.8039719,7.89012502 18.8110334,7.8682623 18.8160774,7.8453585 C18.8211213,7.82453686 18.8231389,7.8047563 18.8251565,7.78497575 Z" id="Combined-Shape"></path>
                                </g>
                                <path d="M57,14.5242476 C57,16.9929031 55.0141113,18.9968458 52.5651267,19 L52.5599117,19 L41.5092337,19 C40.9866863,19 40.5632247,18.5752398 40.5632247,18.0484952 C40.5632247,17.5228019 40.9866863,17.0969904 41.5092337,17.0969904 L52.5599117,17.0969904 C53.9679735,17.0969904 55.1100681,15.9467736 55.1100681,14.5242476 C55.1100681,13.1038244 53.9679735,11.9536076 52.5599117,11.9536076 L52.5599117,11.9504534 L44.4390453,11.9504534 C41.9879747,11.9504534 40,9.94651071 40,7.4757524 C40,5.0039427 41.9879747,3 44.4390453,3 L55.4918093,3 C56.0133137,3 56.4357323,3.42476015 56.4357323,3.9515048 C56.4357323,4.47824944 56.0133137,4.90406098 55.4918093,4.90406098 L44.4390453,4.90406098 C43.0299405,4.90406098 41.8888889,6.05848337 41.8888889,7.4757524 C41.8888889,8.89617558 43.0299405,10.045341 44.4390453,10.045341 L44.4390453,10.0495466 L52.5599117,10.0495466 L52.5599117,10.045341 C55.0130683,10.045341 57,12.0513865 57,14.5242476 Z M39,7.47650963 C39,9.94605427 36.9691304,11.948814 34.463609,11.9509166 C34.463609,11.9509166 34.4625424,11.9530193 34.4593425,11.9530193 L27.4536956,11.9530193 L24.8020454,11.9530193 C24.3220605,11.9530193 23.933806,12.3356988 23.933806,12.8087916 L23.933806,15.4213155 L23.9316727,15.4202641 L23.9316727,18.0485577 C23.9316727,18.5742164 23.4986197,19 22.9642364,19 C22.4319864,19 22,18.5742164 22,18.0485577 L22,12.8087916 L22.0021333,12.8087916 C22.0021333,11.2854327 23.2543606,10.0448781 24.8020454,10.0448781 C24.8095119,10.0448781 24.8159117,10.0501347 24.8233781,10.0501347 L34.4593425,10.0501347 L34.4593425,10.0448781 C35.8982306,10.0448781 37.0672606,8.89683948 37.0672606,7.47650963 C37.0672606,6.05828241 35.9014305,4.90814114 34.4604091,4.90393587 C34.4604091,4.90393587 34.4604091,4.90814114 34.4593425,4.90814114 L22.9642364,4.90814114 C22.4319864,4.90814114 22,4.47815231 22,3.95564755 C22,3.42893751 22.4319864,3.00315395 22.9642364,3.00315395 L34.4593425,3.00315395 L34.4593425,3 C36.9680637,3 39,5.00486234 39,7.47650963 Z M19.0481429,3.73754074 L19.0575164,3.7310963 L19.0575164,18.1279852 L19.0450183,18.124763 C19.0450183,18.3460222 18.9866939,18.5694296 18.8387997,18.7520222 C18.5055171,19.1623185 17.9087329,19.2181704 17.5056693,18.8733926 L9.52875822,12.1840593 L1.55288868,18.8733926 C1.15190803,19.2213926 0.554082345,19.1655407 0.219758223,18.7520222 C0.0729055717,18.5694296 0.012498098,18.3460222 0.0135396062,18.124763 L0,18.1322815 L0,3.82346667 L0,3.79554074 L0,3.7310963 L0.006249049,3.7310963 C0.006249049,3.50876296 0.0666565227,3.28642963 0.214550682,3.10491111 C0.547833296,2.69031852 1.14253446,2.63661481 1.54143209,2.98031852 L1.62996028,3.05228148 C1.6320433,3.0555037 1.63516782,3.06194815 1.63829235,3.06517037 L8.35810304,8.70835556 L6.8739539,9.95965185 L1.8872128,5.77720741 L1.8872128,16.0818741 L4.17436473,14.1668 C4.17957228,14.1614296 4.18477982,14.1614296 4.18894585,14.1549852 L6.40944126,12.2903926 L8.03315249,10.9284667 L8.03002797,10.9284667 L9.5131356,9.68254074 L14.8998158,14.2054667 C14.9321026,14.2366148 14.9706384,14.2462815 15.0050082,14.2645407 L17.1713452,16.0818741 L17.1713452,5.77398519 L12.1689814,9.96824444 L10.6733757,8.7148 L17.5119183,2.98031852 C17.9118575,2.63661481 18.5055171,2.69031852 18.8387997,3.10491111 C18.9877354,3.2918 19.0481429,3.51305926 19.0481429,3.73754074 Z" id="Combined-Shape"></path>
                            </g>
                        </g>
                    </g>
                </g>
            </g>
        </g>
    </g>
</svg>