<?xml version="1.0" encoding="UTF-8"?>
<svg width="20px" height="22px" viewBox="0 0 20 22" version="1.1" xmlns="http://www.w3.org/2000/svg" xmlns:xlink="http://www.w3.org/1999/xlink">
    <!-- Generator: Sketch 53.2 (72643) - https://sketchapp.com -->
    <title>路径</title>
    <desc>Created with Sketch.</desc>
    <g id="页面-1" stroke="none" stroke-width="1" fill="none" fill-rule="evenodd">
        <g id="官网3合1" transform="translate(-366.000000, -5165.000000)" fill="#313131" fill-rule="nonzero">
            <g id="底部" transform="translate(0.000000, 5075.000000)">
                <g id="Group-20" transform="translate(366.000000, 90.000000)">
                    <g id="Group-16">
                        <g id="Group-18">
                            <g id="Group-17">
                                <g id="Group-9">
                                    <path d="M15.7569862,22 L15.6262721,22 C12.9466338,21.8709677 9.35199702,19.3548387 6.01878836,15.3548387 L4.77700474,13.8709677 C1.37843905,9.87096774 -0.386200826,5.93548387 0.0712984015,3.35483871 C0.332726532,1.5483871 3.0777219,0 4.64629068,0 C5.43057507,0 5.6920032,0.387096774 5.75736023,0.580645161 C6.60700165,2.12903226 7.71807121,4.77419355 7.71807121,5.74193548 L7.71807121,5.87096774 C7.52200011,6.38709677 7.06450088,6.64516129 6.73771572,6.83870968 C6.21485946,7.09677419 5.95343133,7.29032258 5.88807429,7.80645161 C5.88807429,7.93548387 6.01878836,8.70967742 8.24092747,11.4193548 L9.22128295,12.5806452 C11.4434221,15.1612903 12.1623494,15.483871 12.2930635,15.483871 C12.8159197,15.5483871 13.0773479,15.3548387 13.4694901,14.9032258 C13.7962752,14.5806452 14.1230604,14.1935484 14.6459167,14.1290323 L14.7766307,14.1290323 C15.7569862,14.3225806 18.2405534,15.9354839 19.6130511,17.0967742 C19.8091222,17.2258065 20.2012644,17.6129032 19.8744793,18.516129 C19.41698,19.9354839 17.5216261,22 15.7569862,22 Z" id="路径"></path>
                                </g>
                            </g>
                        </g>
                    </g>
                </g>
            </g>
        </g>
    </g>
</svg>