<?xml version="1.0" encoding="UTF-8"?>
<svg width="32px" height="32px" viewBox="0 0 32 32" version="1.1" xmlns="http://www.w3.org/2000/svg" xmlns:xlink="http://www.w3.org/1999/xlink">
    <!-- Generator: Sketch 53.2 (72643) - https://sketchapp.com -->
    <title>客服ico</title>
    <desc>Created with Sketch.</desc>
    <g id="客服ico" stroke="none" stroke-width="1" fill="none" fill-rule="evenodd">
        <rect id="Rectangle" x="0" y="0" width="32" height="32"></rect>
        <g id="ico/应用图标/客服/灰色" transform="translate(7.000000, 8.000000)" fill="#75787C">
            <rect id="Rectangle" x="8" y="14" width="3" height="3" rx="1.5"></rect>
            <path d="M2.5,6 L3,6 L3,11 L2.5,11 C1.11928813,11 1.69088438e-16,9.88071187 0,8.5 L0,8.5 C-1.69088438e-16,7.11928813 1.11928813,6 2.5,6 Z" id="Rectangle"></path>
            <path d="M17.5,6 L18,6 L18,11 L17.5,11 C16.1192881,11 15,9.88071187 15,8.5 L15,8.5 C15,7.11928813 16.1192881,6 17.5,6 Z" id="Rectangle-Copy" transform="translate(16.500000, 8.500000) scale(-1, 1) translate(-16.500000, -8.500000) "></path>
            <path d="M12,8 L13,8 C13,10.209139 11.209139,12 9,12 C6.790861,12 5,10.209139 5,8 L6,8 C6,9.65685425 7.34314575,11 9,11 C10.6568542,11 12,9.65685425 12,8 Z" id="Combined-Shape" fill-rule="nonzero"></path>
            <path d="M3,9 L2,9 L2,7 C2,3.13400675 5.13400675,0 9,0 C12.8659932,-8.8817842e-16 16,3.13400675 16,7 L16,9 C16,12.8659932 12.8659932,16 9,16 L9,15 C12.3137085,15 15,12.3137085 15,9 L15,7 C15,3.6862915 12.3137085,1 9,1 C5.6862915,1 3,3.6862915 3,7 L3,9 Z" id="Combined-Shape" fill-rule="nonzero"></path>
        </g>
    </g>
</svg>