<?xml version="1.0" encoding="utf-8"?>
<!-- Generator: Adobe Illustrator 22.1.0, SVG Export Plug-In . SVG Version: 6.00 Build 0)  -->
<svg version="1.1" id="_4_拷贝_3" xmlns="http://www.w3.org/2000/svg" xmlns:xlink="http://www.w3.org/1999/xlink" x="0px"
	 y="0px" viewBox="0 0 120 120" style="enable-background:new 0 0 120 120;" xml:space="preserve">
<style type="text/css">
	.st0{fill:url(#椭圆_1_拷贝_10_1_);}
	.st1{opacity:0.82;fill:#D1FAFE;enable-background:new    ;}
	.st2{opacity:0.68;fill:#CBECFC;enable-background:new    ;}
	.st3{fill:url(#形状_1_拷贝_6_1_);}
	.st4{opacity:0.28;fill:url(#形状_1_拷贝_2_3_);enable-background:new    ;}
	.st5{opacity:0.7;fill:url(#形状_1_拷贝_2_4_);enable-background:new    ;}
	.st6{opacity:0.64;fill:#FFFFFF;enable-background:new    ;}
	.st7{opacity:0.4;fill:url(#SVGID_1_);}
</style>
<linearGradient id="椭圆_1_拷贝_10_1_" gradientUnits="userSpaceOnUse" x1="30.7614" y1="19.9225" x2="93.6023" y2="107.8302">
	<stop  offset="0" style="stop-color:#53E5FB"/>
	<stop  offset="1" style="stop-color:#A861FF"/>
</linearGradient>
<path id="椭圆_1_拷贝_10" class="st0" d="M67,3.5l39.3,22.2c4.5,2.5,7.3,7.2,7.3,12.4v44.5c0,5.1-2.8,9.9-7.3,12.4L67,117.1
	c-4.6,2.6-10.2,2.6-14.8,0L12.9,94.9c-4.5-2.5-7.3-7.2-7.3-12.4V38c0-5.1,2.8-9.9,7.3-12.4L52.2,3.5C56.8,0.9,62.4,0.9,67,3.5"/>
<g id="组_8">
	<path id="形状_1" class="st1" d="M41.4,53.4h-0.1c-4.3,0-8.3,2.3-10.6,6l-7.9,14.2c-0.3,0.9-0.4,1.8-0.4,2.7
		c-0.1,4.3,3.2,7.9,7.5,8.2v0h48.8c0,0-12.5-0.8-19.2-11.9l-8-14.1C49,55.3,45.3,53.4,41.4,53.4"/>
	<path id="形状_1_拷贝_2" class="st2" d="M87.2,84.4L87.2,84.4l-57.8,0c-4.8-0.4-7.3-5.3-7.2-8.4c13.1,8.4,23.2-1.1,26.1-6.7
		s1.9-3.8,3.6-7.3c4-7.5,11.3-18.3,19.9-18.5c14,0,24.7,26.8,24.7,26.8c0.4,1.1,0.6,2.3,0.6,3.5C97.2,79.5,92.8,84.1,87.2,84.4z"/>
	
		<linearGradient id="形状_1_拷贝_6_1_" gradientUnits="userSpaceOnUse" x1="43.274" y1="74.0692" x2="43.274" y2="89.469" gradientTransform="matrix(1 0 0 -1 0 120)">
		<stop  offset="0" style="stop-color:#D8F3FF"/>
		<stop  offset="1" style="stop-color:#FFFFFF"/>
	</linearGradient>
	<path id="形状_1_拷贝_6" class="st3" d="M43.3,30.5c4.3,0,7.7,3.5,7.6,7.7s-3.5,7.7-7.7,7.6c-4.2,0-7.6-3.5-7.7-7.7
		C35.6,34,39.1,30.5,43.3,30.5C43.3,30.5,43.3,30.5,43.3,30.5z"/>
	<linearGradient id="形状_1_拷贝_2_3_" gradientUnits="userSpaceOnUse" x1="81.1235" y1="87.9931" x2="68.8899" y2="45.1918">
		<stop  offset="0" style="stop-color:#FFFFFF;stop-opacity:0.4"/>
		<stop  offset="0.3975" style="stop-color:#FDFEFF;stop-opacity:0.6385"/>
		<stop  offset="0.5406" style="stop-color:#F6FCFD;stop-opacity:0.7244"/>
		<stop  offset="0.6427" style="stop-color:#EBF8FB;stop-opacity:0.7856"/>
		<stop  offset="0.7253" style="stop-color:#DAF2F8;stop-opacity:0.8352"/>
		<stop  offset="0.796" style="stop-color:#C4EAF4;stop-opacity:0.8776"/>
		<stop  offset="0.8585" style="stop-color:#A8E0EF;stop-opacity:0.9151"/>
		<stop  offset="0.9152" style="stop-color:#88D5E9;stop-opacity:0.9491"/>
		<stop  offset="0.9655" style="stop-color:#64C8E2;stop-opacity:0.9793"/>
		<stop  offset="1" style="stop-color:#46BDDD"/>
	</linearGradient>
	<path id="形状_1_拷贝_2_1_" class="st4" d="M87.3,84.3L87.3,84.3l-8.9,0.1c0,0-4-0.6-8.1-2.5c-2.8-1.3-5.7-3.3-7.7-5.5
		c-3.9-4.4-10.1-15.7-9.9-16c4.1-7.4,11.2-16.8,19.3-17c14,0,24.7,26.8,24.7,26.8c0.4,1.1,0.6,2.3,0.6,3.5
		C97.2,79.4,92.9,84,87.3,84.3z"/>
	<linearGradient id="形状_1_拷贝_2_4_" gradientUnits="userSpaceOnUse" x1="75.9521" y1="82.2218" x2="73.0213" y2="37.8031">
		<stop  offset="0" style="stop-color:#F5DCFB"/>
		<stop  offset="0.153" style="stop-color:#D6D7F6;stop-opacity:0.847"/>
		<stop  offset="0.563" style="stop-color:#89C9E9;stop-opacity:0.437"/>
		<stop  offset="0.8554" style="stop-color:#59C0E0;stop-opacity:0.1446"/>
		<stop  offset="1" style="stop-color:#46BDDD;stop-opacity:0"/>
	</linearGradient>
	<path id="形状_1_拷贝_2_2_" class="st5" d="M87.3,84.4L87.3,84.4l-8.9,0.1c0,0-4-0.6-8.1-2.5c-2.8-1.3-5.7-3.3-7.7-5.5
		c-3.9-4.4-10.1-15.7-9.9-16c4.1-7.4,11.2-16.8,19.3-17c14,0,24.7,26.8,24.7,26.8c0.4,1.1,0.6,2.3,0.6,3.5
		C97.2,79.5,92.9,84.1,87.3,84.4z"/>
</g>
<path id="形状_1_1_" class="st6" d="M22.2,76.3c-0.1,4.3,3.3,7.8,7.2,8.1l0.6,0h48.8c0,0-12.5-0.8-19.2-11.9l-6.8-12
	c0,0-4.9,11.7-11.8,16.2C30,83.8,22.2,75.4,22.2,76.3z"/>
<linearGradient id="SVGID_1_" gradientUnits="userSpaceOnUse" x1="33.2603" y1="59.1467" x2="41.0293" y2="76.8051">
	<stop  offset="0" style="stop-color:#FFFFFF;stop-opacity:0.4"/>
	<stop  offset="0.1078" style="stop-color:#F6FCFD;stop-opacity:0.4647"/>
	<stop  offset="0.2866" style="stop-color:#DCF3F9;stop-opacity:0.5719"/>
	<stop  offset="0.5142" style="stop-color:#B3E4F1;stop-opacity:0.7085"/>
	<stop  offset="0.7788" style="stop-color:#7BD0E7;stop-opacity:0.8673"/>
	<stop  offset="1" style="stop-color:#46BDDD"/>
</linearGradient>
<path class="st7" d="M47.8,55.2c0,0,2.5,1.5,3.5,3.1c1,1.6,1.3,2.3,1.3,2.3s-4.3,11.9-13.4,16.9s-17.1-1.3-17.1-1.3l0.3-2.4
	c0,0,1.3-2.5,2.4-4.3c1.1-1.8,4.8-8.8,4.8-8.8s2.8-6.1,9.4-7.4C43.9,52.7,47.8,55.2,47.8,55.2z"/>
</svg>
